<?xml version="1.0" encoding="utf-8"?>
<!-- Generator: Adobe Illustrator 27.5.0, SVG Export Plug-In . SVG Version: 6.00 Build 0)  -->
<svg version="1.1" xmlns="http://www.w3.org/2000/svg" xmlns:xlink="http://www.w3.org/1999/xlink" x="0px" y="0px"
	 viewBox="0 0 500 500" style="enable-background:new 0 0 500 500;" xml:space="preserve">
<g id="BACKGROUND">
	<rect style="fill:#F1F1F4;" width="500" height="500"/>
</g>
<g id="OBJECTS">
	<g>
		<defs>
			<rect id="SVGID_1_" width="500" height="500"/>
		</defs>
		<clipPath id="SVGID_00000182526701380896731900000016591531377899134877_">
			<use xlink:href="#SVGID_1_"  style="overflow:visible;"/>
		</clipPath>
		<g style="clip-path:url(#SVGID_00000182526701380896731900000016591531377899134877_);">
			<path style="fill:#EDBA94;" d="M273.206,508.951c-13.029-27.492-20.364-58.139-17.713-88.447s15.868-60.172,38.84-80.119
				c2.338-2.03,5.481-4.069,8.313-2.818c3.867,1.709,3.154,7.343,1.794,11.346c-4.808,14.147-9.616,28.295-13.988,42.643
				c34.829-23.864,61.734-57.276,90.48-88.199c1.394-1.5,3.336-3.134,5.244-2.391c1.26,0.492,1.948,1.927,1.967,3.279
				c0.019,1.353-0.498,2.65-1.02,3.898c-9.841,23.537-22.051,41.41-40.02,59.545c23.953-16.404,42.09-44.588,61.787-65.916
				c4.423-4.79,9.561-1.719,8.874,2.967c-1.403,9.57-8.915,18.87-12.041,24.873c-10.322,19.826-23.252,38.292-37.092,55.679
				c16.637-17.511,33.274-35.022,49.912-52.533c0.911-0.958,1.928-1.798,3.055-2.491c8.939-5.5,7.169,4.844,7.169,4.844
				s-5.67,10.266-8.545,15.122c-11.278,19.049-24.739,36.805-39.783,53.973c12.622-8.026,24.979-16.466,37.046-25.304
				c1.412-1.034,2.88-2.101,4.594-2.451c1.715-0.35,3.755,0.233,4.539,1.797c0.925,1.844-0.212,4.015-1.342,5.741
				c-18.841,28.756-43.852,50.994-72.247,70.82c3.63,14.724,7.464,54.38,7.723,56.711L273.206,508.951z"/>
			<path style="fill:none;stroke:#D78A4B;stroke-width:4;stroke-linecap:round;stroke-linejoin:round;stroke-miterlimit:10;" d="
				M282.944,392.143c20.783-0.247,41.384,10.507,53.064,27.7"/>
			<path style="fill:none;stroke:#D78A4B;stroke-width:4;stroke-linecap:round;stroke-linejoin:round;stroke-miterlimit:10;" d="
				M387.567,307.394c-10.299,23.137-24.788,44.401-42.555,62.45"/>
			<path style="fill:none;stroke:#D78A4B;stroke-width:4;stroke-linecap:round;stroke-linejoin:round;stroke-miterlimit:10;" d="
				M408.883,323.862c-11.769,22.11-27.782,42.912-42.706,63.028"/>
			<path style="fill:none;stroke:#D78A4B;stroke-width:4;stroke-linecap:round;stroke-linejoin:round;stroke-miterlimit:10;" d="
				M416.999,357.095c-9.857,16.941-22.021,32.538-36.051,46.224"/>
			<path style="fill:none;stroke:#D78A4B;stroke-width:4;stroke-linecap:round;stroke-linejoin:round;stroke-miterlimit:10;" d="
				M423.506,386.645c-20.902,25.956-45.999,49.295-70.477,68.166c3.083,15.71,5.554,42.039,7.892,57.878"/>
			<path style="fill:none;stroke:#F6E0C5;stroke-width:4;stroke-linecap:round;stroke-linejoin:round;stroke-miterlimit:10;" d="
				M274.629,365.343c-10.972,15.319-16.451,34.098-17.887,52.886c-1.437,18.788,0.984,37.678,4.669,56.158"/>
		</g>
		<g style="clip-path:url(#SVGID_00000182526701380896731900000016591531377899134877_);">
			<path style="fill:#EDBA94;" d="M237.769,508.662c0.03-25.297,0.06-50.594-0.158-75.678c9.093-16.394,18.035-33.079,23.122-51.122
				c1.915-6.793,3.257-14.104,1.142-20.837c-0.986-3.139-3.06-6.309-6.271-7.029c-3.592-0.805-7.026,1.703-9.731,4.201
				c-10.214,9.43-18.343,20.854-26.982,33.166c-22.501-29.599-41.917-61.541-57.833-95.143c-4.143-8.748-8.443-18.079-16.525-23.405
				c-1.275-0.84-2.678-1.58-4.201-1.692c-1.522-0.111-3.184,0.542-3.883,1.898c-0.7,1.357-0.304,2.997,0.112,4.466
				c8.325,29.414,18.802,58.219,30.952,85.111c-22.351-24.295-38.888-53.264-58.639-79.717c-1.739-2.329-4.403-4.92-7.102-3.841
				c-2.222,0.888-2.831,3.715-2.931,6.105c-0.503,12.071,3.86,23.79,8.8,34.816c8.771,19.579,19.589,38.24,32.077,55.379
				c-19.005-17.024-31.766-39.855-48.953-58.713c-1.089-1.194-2.225-2.396-3.659-3.14c-1.435-0.744-3.244-0.958-4.644-0.151
				c-1.354,0.78-2.078,2.374-2.198,3.932c-0.12,1.558,0.276,3.106,0.698,4.61c6.993,24.915,22,46.733,36.775,67.608
				c-12.095-8.912-24.443-17.48-37.024-25.691c-1.841-1.201-4.385-2.368-6.047-0.929c-1.446,1.251-1.07,3.563-0.437,5.368
				c2.858,8.143,8.35,15.068,14.033,21.562c15.625,17.853,33.46,33.77,52.325,47.044c-0.995,24.975-1.99,49.95-2.985,74.926
				L237.769,508.662z"/>
			<path style="fill:none;stroke:#D78A4B;stroke-width:4;stroke-linecap:round;stroke-linejoin:round;stroke-miterlimit:10;" d="
				M252.314,405.506c-4.731,7.66-8.376,16.115-14.245,22.934c-1.635,2.224-2.305,4.301-2.01,6.231
				c1.835,18.477,0.629,36.432,0.287,53.849"/>
			<path style="fill:none;stroke:#D78A4B;stroke-width:4;stroke-linecap:round;stroke-linejoin:round;stroke-miterlimit:10;" d="
				M138.135,282.959c5.811,26.13,16.377,54.863,29.423,78.237"/>
			<path style="fill:none;stroke:#D78A4B;stroke-width:4;stroke-linecap:round;stroke-linejoin:round;stroke-miterlimit:10;" d="
				M103.533,310.031c9.953,24.242,24.854,46.475,39.294,65.796"/>
			<path style="fill:none;stroke:#D78A4B;stroke-width:4;stroke-linecap:round;stroke-linejoin:round;stroke-miterlimit:10;" d="
				M86.426,338.101c8.559,18.832,19.364,36.642,32.113,52.932"/>
			<path style="fill:none;stroke:#D78A4B;stroke-width:4;stroke-linecap:round;stroke-linejoin:round;stroke-miterlimit:10;" d="
				M92.811,394.215c13.662,16.555,29.632,31.201,47.108,43.514c-0.743,18.282-1.577,55.755-2.32,74.037"/>
			<path style="fill:none;stroke:#F6E0C5;stroke-width:4;stroke-linecap:round;stroke-linejoin:round;stroke-miterlimit:10;" d="
				M253.581,355.022c-7.941-0.187-13.848,7.901-18.411,13.33c-6.618,7.874-12.705,16.106-17.698,25.12"/>
			<path style="fill:none;stroke:#F6E0C5;stroke-width:4;stroke-linecap:round;stroke-linejoin:round;stroke-miterlimit:10;" d="
				M179.543,359.365c-23.573,7.819-44.946,22.158-61.12,41.007"/>
		</g>
	</g>
	<g>
		<g>
			<path style="fill:#EFC380;" d="M122.793,91.021c-1.014,0.073-5.686,3.885-5.433,6.761c0.139,1.576,0.948,3.048,0.989,4.629
				c0.059,2.271-1.451,4.258-2.99,5.929c-4.003,4.343-8.746,8.003-13.963,10.773c-0.557,0.296-1.145,0.588-1.776,0.592
				c-0.63,0.004-1.997-0.186-2.035-0.482c-2.509,1.964-3.805,2.939-6.59,4.731c0.076,0.388,0.491,2.174,0.152,3.112
				s-1.073,1.67-1.794,2.357c-7.461,7.11-16.026,13.008-25.093,17.906c-0.984,0.532-1.998,1.06-3.103,1.232
				s-2.703-0.037-3.466-0.855c0,0-8.864-5.46-14.543-21.139l-0.208-0.471c-0.526-0.988-0.354-2.23,0.168-3.22
				c0.523-0.989,1.352-1.776,2.175-2.533c7.583-6.979,15.948-13.158,25.099-17.898c0.885-0.459,1.816-0.913,2.813-0.929
				c0.997-0.016,2.55,0.958,2.893,1.156c2.601-2.05,3.945-2.958,6.618-4.691c-0.267-0.132-0.002-1.487,0.206-2.081
				c0.209-0.595,0.677-1.056,1.138-1.487c4.317-4.031,9.322-7.325,14.731-9.696c2.081-0.912,4.451-1.693,6.579-0.898
				c1.482,0.554,2.611,1.798,4.055,2.442c2.637,1.175,7.763-2.001,8.162-2.936L122.793,91.021z"/>
			<path style="fill:#325889;" d="M120.423,78.842c-1.62,1.048-3.174,2.197-4.945,3.48c-0.26,2.28,0.239,4.641,1.402,6.62
				c1.162,1.979,2.981,3.565,5.119,4.647c1.731-1.851,3.629-3.431,5.359-5.282C125.394,85.242,123.105,82.007,120.423,78.842z"/>
			<path style="fill:#5683A0;" d="M127.994,86.533c-1.165-2.977-3.058-5.812-5.87-7.334c-0.53-0.287-1.198-0.519-1.71-0.201
				c-0.61,0.379-0.592,1.268-0.413,1.963c0.626,2.433,2.283,4.463,4.045,6.254c0.39,0.396,0.794,0.79,1.281,1.059
				c0.487,0.268,1.074,0.4,1.606,0.241C127.765,88.265,128.272,87.245,127.994,86.533z"/>
			<path style="fill:none;stroke:#325889;stroke-width:2;stroke-linecap:round;stroke-linejoin:round;stroke-miterlimit:10;" d="
				M119.003,79.872c-1.551,1.073-2.284,1.551-3.821,2.48c-0.415,2.197-0.133,4.159,0.851,6.166c0.984,2.007,3.514,4.104,5.504,5.122
				"/>
			<g>
				<path style="fill:none;stroke:#5683A0;stroke-width:2;stroke-linecap:round;stroke-linejoin:round;stroke-miterlimit:10;" d="
					M119.559,82.82c-0.92,0.711-1.839,1.421-2.759,2.132"/>
				<path style="fill:none;stroke:#5683A0;stroke-width:2;stroke-linecap:round;stroke-linejoin:round;stroke-miterlimit:10;" d="
					M120.509,84.813c-1.07,0.815-2.056,1.739-2.939,2.754"/>
				<path style="fill:none;stroke:#5683A0;stroke-width:2;stroke-linecap:round;stroke-linejoin:round;stroke-miterlimit:10;" d="
					M121.813,86.772c-0.95,0.788-1.834,1.656-2.639,2.592"/>
				<path style="fill:none;stroke:#5683A0;stroke-width:2;stroke-linecap:round;stroke-linejoin:round;stroke-miterlimit:10;" d="
					M123.563,88.482c-0.823,0.877-1.647,1.755-2.471,2.632"/>
			</g>
			<path style="fill:none;stroke:#F6E0C5;stroke-width:2;stroke-linecap:round;stroke-linejoin:round;stroke-miterlimit:10;" d="
				M112.382,89.307c-0.944,0.509-2.089,0.5-3.138,0.282c-1.05-0.218-2.05-0.628-3.09-0.89c-3.671-0.923-7.784,0.173-10.509,2.801"/>
			<path style="fill:none;stroke:#F6E0C5;stroke-width:2;stroke-linecap:round;stroke-linejoin:round;stroke-miterlimit:10;" d="
				M76.757,105.786c-1.97-0.635-4.149-0.306-6.06,0.488c-1.911,0.794-3.605,2.022-5.278,3.24"/>
			<path style="fill:none;stroke:#F6E0C5;stroke-width:2;stroke-linecap:round;stroke-linejoin:round;stroke-miterlimit:10;" d="
				M62.704,110.752c-1.333,0.937-2.667,1.875-4,2.812"/>
			<path style="fill:none;stroke:#F6E0C5;stroke-width:2;stroke-linecap:round;stroke-linejoin:round;stroke-miterlimit:10;" d="
				M75.984,136.393c-3.358,2.154-6.716,4.307-10.075,6.461"/>
			<path style="fill:none;stroke:#EAA94E;stroke-width:2;stroke-linecap:round;stroke-linejoin:round;stroke-miterlimit:10;" d="
				M45.15,125.339c8.058,3.749,14.107,11.543,15.739,20.279"/>
			<path style="fill:none;stroke:#EAA94E;stroke-width:2;stroke-linecap:round;stroke-linejoin:round;stroke-miterlimit:10;" d="
				M97.414,119.179c-2.219,1.616-4.438,3.232-6.742,4.975c0.392,1.875-0.34,3.844-1.512,5.358c-1.173,1.514-2.751,2.654-4.306,3.773
				c-4.803,3.454-9.606,6.908-14.409,10.362"/>
			<path style="fill:none;stroke:#EAA94E;stroke-width:2;stroke-linecap:round;stroke-linejoin:round;stroke-miterlimit:10;" d="
				M109.807,86.121c-2.023-1.514-4.541-2.378-7.068-2.346c-4.589,0.058-8.612,2.909-12.3,5.64"/>
			<path style="fill:none;stroke:#EAA94E;stroke-width:2;stroke-linecap:round;stroke-linejoin:round;stroke-miterlimit:10;" d="
				M82.672,97.888c-2.05,1.472-4.099,2.945-6.149,4.417"/>
			<path style="fill:none;stroke:#F6E0C5;stroke-width:2;stroke-linecap:round;stroke-linejoin:round;stroke-miterlimit:10;" d="
				M125.509,88.267c-1.606-0.954-2.987-2.284-4.002-3.852"/>
		</g>
		<g>
			<path style="fill:#EFC380;" d="M255.788,158.245c2.316,1.533,4.234,4.06,5.408,6.298c-0.266,0.445-4.953,5.053-7.381,7.636
				c-2.428,2.584-5.348,4.961-8.841,5.57c-1.716,0.299-3.497,0.156-5.19,0.567c-2.502,0.608-4.548,2.351-6.491,4.04
				c-9.037,7.853-18.074,15.705-27.134,23.738c-3.035,2.69-5.967-2.495-6.065-3.005
				C217.503,187.793,236.963,173.115,255.788,158.245z"/>
			<path style="fill:#EFC380;" d="M255.435,158.008c2.316,1.533,2.688,2.057,4.34,4.438c-2.814,2.157-4.953,5.053-7.381,7.636
				c-2.428,2.584-5.348,4.961-8.841,5.57c-1.716,0.299-3.497,0.156-5.19,0.567c-2.502,0.608-4.548,2.351-6.491,4.04
				c-10.017,8.704-19.245,16.657-29.294,25.607c-0.498-0.656-2.289-0.985-3.041-4.557
				C216.946,186.014,236.306,172.668,255.435,158.008z"/>
			<path style="fill:#F6E0C5;" d="M257.481,162.032c-0.29-0.362-2.883-5.954-3.036-6.448c-1.739-0.445-3.235-0.775-4.732-1.106
				c-5.314,3.451-10.21,7.26-14.846,11.363c1.941,2.758,3.232,4.941,5.599,7.579c-0.135-0.115,4.102,0.672,6.208-1.106
				C250.168,169.365,254.144,165.18,257.481,162.032z"/>
			<path style="fill:none;stroke:#BA9487;stroke-width:2;stroke-linecap:round;stroke-linejoin:round;stroke-miterlimit:10;" d="
				M235.43,165.992c0.295,0.184,5.121,0.666,5.52,0.671c1.365,2.044,2.257,3.867,3.622,5.911"/>
			<path style="fill:none;stroke:#BA9487;stroke-width:2;stroke-linecap:round;stroke-linejoin:round;stroke-miterlimit:10;" d="
				M241.389,166.335c2.464-2.074,4.927-4.148,7.426-6.261c1.367,0.793,2.734,1.585,4.101,2.378c-0.718-1.365-1.437-2.73-2.155-4.094
				c0.744-0.764,1.683-1.337,2.703-1.649"/>
			<path style="fill:none;stroke:#F1F1F4;stroke-width:2;stroke-linecap:round;stroke-linejoin:round;stroke-miterlimit:10;" d="
				M243.719,166.817c0.948,1.328,2.026,2.564,3.213,3.684"/>
			<path style="fill:none;stroke:#F1F1F4;stroke-width:2;stroke-linecap:round;stroke-linejoin:round;stroke-miterlimit:10;" d="
				M245.728,164.59c0.964,1.56,2.077,3.029,3.319,4.379"/>
			<path style="fill:none;stroke:#F1F1F4;stroke-width:2;stroke-linecap:round;stroke-linejoin:round;stroke-miterlimit:10;" d="
				M248.328,163.604c0.797,1.151,1.593,2.302,2.39,3.453"/>
			<path style="fill:none;stroke:#F6E0C5;stroke-width:2;stroke-linecap:round;stroke-linejoin:round;stroke-miterlimit:10;" d="
				M233.587,167.319c2.506,1.67,4.844,3.502,6.995,5.482"/>
			<path style="fill:none;stroke:#EAA94E;stroke-width:2;stroke-linecap:round;stroke-linejoin:round;stroke-miterlimit:10;" d="
				M199.942,202.573c0.226,1.506,2.086,2.292,3.569,1.946c1.483-0.347,2.647-1.46,3.74-2.522
				c8.55-8.308,17.541-16.162,26.922-23.519"/>
			<path style="fill:none;stroke:#EAA94E;stroke-width:2;stroke-linecap:round;stroke-linejoin:round;stroke-miterlimit:10;" d="
				M239.08,175.731c1.919-0.745,4.063-0.581,6.077-1.01c2.226-0.474,4.247-1.668,5.987-3.134c1.741-1.466,3.228-3.204,4.707-4.933"
				/>
			<path style="fill:none;stroke:#F6E0C5;stroke-width:2;stroke-linecap:round;stroke-linejoin:round;stroke-miterlimit:10;" d="
				M202.157,201.267c1.521-1.334,3.043-2.668,4.564-4.003"/>
			<path style="fill:none;stroke:#F6E0C5;stroke-width:2;stroke-linecap:round;stroke-linejoin:round;stroke-miterlimit:10;" d="
				M208.075,195.985c0.542-0.483,1.084-0.967,1.626-1.45"/>
		</g>
		<g>
			<g>
				<path style="fill:#CF673B;" d="M199.224,149.901c-8.604-8.627-13.285-20.278-18.927-31.078
					c-5.642-10.799-13.165-21.619-24.546-25.969c1.04,2.534-0.182,5.523-2.143,7.435c-1.961,1.912-4.54,3.023-6.971,4.284
					c-10.292,5.338-18.776,14.091-23.789,24.545c-1.073,2.237-2.002,4.595-2.183,7.07c-0.18,2.475,0.475,5.102,2.211,6.875
					c2.515,2.569,6.499,2.769,9.896,3.945c6.201,2.147,10.564,7.69,13.946,13.314c3.382,5.624,6.242,11.718,10.986,16.253
					c4.744,4.535,10.462,8.063,15.648,5.628c3.867,5.564,13.029,11.66,20.504,8.302c3.473-1.56,5.977-6.814,3.665-10.89
					c3.746,1.024,7.818,1.077,10.794-1.418c2.976-2.495,4.622-6.493,4.267-10.36c-0.349-3.802-2.482-7.232-5.053-10.055
					C204.959,154.96,201.92,152.605,199.224,149.901z M186.453,170.464c1.815,2.823,3.654,5.697,4.588,8.921
					c0.403,1.391,0.629,2.885,0.247,4.281c-0.382,1.396-1.489,2.666-2.92,2.889c-1.514,0.236-2.943-0.689-4.174-1.602
					c-2.147-1.593-4.22-3.285-6.211-5.068c-2.217-1.987-4.41-4.211-5.294-7.054c-0.884-2.843-0.019-6.439,2.645-7.768
					c2.163-1.079,4.783-0.959,6.692,0.278C183.935,166.579,185.223,168.55,186.453,170.464z M203.752,170.415
					c-0.553,6.778-6.966,3.772-8.351,3.614c-4.636-4.02-6.243-8.761-8.561-14.793c3.054-0.913,7.038-0.835,9.658,0.981
					C199.196,162.087,204.038,166.907,203.752,170.415z"/>
			</g>
			<path style="fill:none;stroke:#D78A4B;stroke-width:2;stroke-linecap:round;stroke-linejoin:round;stroke-miterlimit:10;" d="
				M194.759,190.147c2.167-1.188,3.395-3.7,3.501-6.169c0.106-2.47-0.771-4.892-1.984-7.045c-1.213-2.154-2.762-4.096-4.155-6.138
				c-4.171-6.114-6.992-13.542-5.583-20.868c4.982,1.145,9.607,3.802,13.104,7.53"/>
			<path style="fill:none;stroke:#CA4F23;stroke-width:2;stroke-linecap:round;stroke-linejoin:round;stroke-miterlimit:10;" d="
				M208.264,178.725c2.998-3.048,3.81-7.788,2.864-11.957c-0.946-4.169-3.427-7.837-6.273-11.027
				c-2.846-3.19-6.093-6.001-8.972-9.161c-4.533-4.975-8.14-10.835-10.231-17.232"/>
			<path style="fill:none;stroke:#D78A4B;stroke-width:2;stroke-linecap:round;stroke-linejoin:round;stroke-miterlimit:10;" d="
				M158.005,98.375c7.228,4.893,12.797,12.19,15.611,20.453"/>
			<path style="fill:none;stroke:#D78A4B;stroke-width:2;stroke-linecap:round;stroke-linejoin:round;stroke-miterlimit:10;" d="
				M175.48,122.694c1.169,3.693,3.229,7.1,5.956,9.851"/>
			<path style="fill:none;stroke:#D78A4B;stroke-width:2;stroke-linecap:round;stroke-linejoin:round;stroke-miterlimit:10;" d="
				M166.175,176.081c-8.062-10.44-11.707-24.183-9.878-37.247"/>
			<path style="fill:none;stroke:#D78A4B;stroke-width:2;stroke-linecap:round;stroke-linejoin:round;stroke-miterlimit:10;" d="
				M162.3,156.613c-4.165-10.13-4.609-21.743-1.23-32.161l10.989,7.974"/>
			<g>
				<path style="fill:#CA4F23;" d="M131.09,116.74c-0.47,9.958-0.543,19.843-0.232,29.7c0.649,0.171,1.292,0.353,1.914,0.568
					c4.043,1.4,7.3,4.246,10.018,7.614c2.993-15.974,3.173-32.311,0.463-48.124C138.726,109.29,134.618,112.757,131.09,116.74z"/>
			</g>
			<path style="fill:none;stroke:#F1F1F4;stroke-width:2;stroke-linecap:round;stroke-linejoin:round;stroke-miterlimit:10;" d="
				M134.647,147.723c4.489,1.29,8.079,4.742,10.671,8.627s4.352,8.253,6.453,12.424c2.101,4.172,4.645,8.267,8.377,11.075
				c3.732,2.809,8.872,4.12,13.183,2.324"/>
		</g>
		<g>
			<path style="fill:#5F5680;" d="M76.86,192.004c-0.714-3.184-4.35-4.792-7.301-3.401c-10.816,5.1-19.487,14.675-23.355,26.005
				c-1.406,4.117-2.207,8.521-1.62,12.833c0.587,4.311,2.682,8.526,6.203,11.081c2.012,1.459,4.496,2.346,6.975,2.171
				c3.423-0.243,6.496-2.515,8.274-5.451c1.778-2.935,2.389-6.454,2.359-9.886c-0.033-3.703-0.769-7.367-0.947-11.066
				s0.269-7.596,2.348-10.66c1.193-1.758,2.851-3.137,4.295-4.695c1.444-1.558,2.728-3.427,2.878-5.546
				C77.002,192.934,76.965,192.47,76.86,192.004z"/>
			<path style="fill:none;stroke:#37304F;stroke-width:2;stroke-linecap:round;stroke-linejoin:round;stroke-miterlimit:10;" d="
				M64.231,231.231c-1.28,2.645-4.219,4.648-7.102,4.083c-1.849-0.362-3.4-1.702-4.374-3.315c-2.074-3.433-1.725-7.78-0.937-11.713
				c1.042-5.197,2.746-10.287,5.349-14.904c2.603-4.617,6.125-8.755,10.47-11.791c0.62-0.433,1.452-0.849,2.085-0.435
				c0.419,0.275,0.569,0.84,0.49,1.336c-0.078,0.495-0.341,0.939-0.599,1.37c-1.103,1.843-2.206,3.686-3.31,5.53"/>
			<path style="fill:none;stroke:#37304F;stroke-width:2;stroke-linecap:round;stroke-linejoin:round;stroke-miterlimit:10;" d="
				M57.732,229.056c-0.692-7.8,0.888-15.789,4.497-22.738"/>
			<g>
				<path style="fill:#37304F;" d="M65.589,232.476c2.888,1.569,6.897,0.012,8.625-2.783c0.721-1.166,1.071-2.702,0.404-3.899
					c-0.996-1.789-3.616-1.925-4.976-3.456c-1.535-1.727-1.079-4.772-2.928-6.157c-1.154-0.864-2.88-0.673-4.023,0.207
					c-1.143,0.88-1.571,2.348-1.951,3.739C59.982,222.902,60.711,229.824,65.589,232.476z M66.429,228.082
					c0.135-0.433,0.458-0.791,0.839-1.038c0.381-0.248,0.817-0.395,1.255-0.512c0.38-0.102,0.773-0.183,1.164-0.143
					c0.391,0.039,0.785,0.214,1.01,0.536c0.236,0.338,0.255,0.794,0.128,1.186c-0.19,0.585-0.676,1.031-1.212,1.332
					c-1.19,0.668-2.61,0.239-2.925-0.088C66.372,229.027,66.294,228.516,66.429,228.082z"/>
			</g>
			<path style="fill:#325889;" d="M98.894,133.871c-8.958,6.143-17.175,14.476-22.24,25.244c-5.065,10.769-7.552,22.74-7.194,34.635
				c7.701,2.419,15.388,5.58,22.9,9.389c8.299-18.69,22.784-34.076,31.66-52.79C116.064,143.625,107.915,139.688,98.894,133.871z"/>
			<path style="fill:#5F5680;" d="M90.42,201.573c0.605,1.262,2.271,1.729,3.646,1.408c1.374-0.321,2.517-1.241,3.585-2.156
				c13.471-11.54,23.709-27.094,27.385-44.341c0.233-1.094,0.441-2.22,0.259-3.323s-0.827-2.192-1.87-2.62
				c-1.665-0.683-3.473,0.502-4.846,1.66c-11.643,9.811-20.683,22.624-25.976,36.82C91.164,192.879,88.431,197.426,90.42,201.573z"
				/>
			<path style="fill:none;stroke:#37304F;stroke-width:2;stroke-linecap:round;stroke-linejoin:round;stroke-miterlimit:10;" d="
				M98.803,195.487c8.804-8.593,15.739-19.253,19.137-31.077c0.18-0.626,0.352-1.272,0.285-1.92
				c-0.067-0.648-0.422-1.306-1.026-1.551c-1.047-0.424-2.11,0.52-2.836,1.385c-4.388,5.228-8.311,10.846-11.708,16.765"/>
			<path style="fill:none;stroke:#37304F;stroke-width:2;stroke-linecap:round;stroke-linejoin:round;stroke-miterlimit:10;" d="
				M96.254,193.944c0.725-2.934,1.713-5.802,2.95-8.559"/>
			<path style="fill:none;stroke:#37304F;stroke-width:2;stroke-linecap:round;stroke-linejoin:round;stroke-miterlimit:10;" d="
				M104.101,185.09c2.293-3.842,4.586-7.685,6.879-11.527"/>
			<g>
				<path style="fill:none;stroke:#7EB0BF;stroke-width:2;stroke-linecap:round;stroke-linejoin:round;stroke-miterlimit:10;" d="
					M85.346,192.056c-3.409-1.239-6.818-2.478-10.156-3.766c0.045-1.229,0.341-2.448,0.866-3.56"/>
				<path style="fill:none;stroke:#7EB0BF;stroke-width:2;stroke-linecap:round;stroke-linejoin:round;stroke-miterlimit:10;" d="
					M79.892,189.62c0.218-0.971,0.435-1.943,0.653-2.914"/>
				<path style="fill:none;stroke:#7EB0BF;stroke-width:2;stroke-linecap:round;stroke-linejoin:round;stroke-miterlimit:10;" d="
					M77.735,181.542c3.044,1.234,6.088,2.469,9.131,3.703"/>
				<path style="fill:none;stroke:#7EB0BF;stroke-width:2;stroke-linecap:round;stroke-linejoin:round;stroke-miterlimit:10;" d="
					M80.072,173.917c0.143,0.908,0.304,1.835,0.758,2.633c0.454,0.799,1.263,1.456,2.182,1.476c0.96,0.021,1.795-0.628,2.719-0.888
					c1.044-0.293,2.224-0.052,3.07,0.627c0.846,0.679,1.336,1.778,1.277,2.861"/>
				<path style="fill:none;stroke:#7EB0BF;stroke-width:2;stroke-linecap:round;stroke-linejoin:round;stroke-miterlimit:10;" d="
					M82.607,170.047c3.105,1.56,6.21,3.12,9.315,4.68"/>
				<path style="fill:none;stroke:#7EB0BF;stroke-width:2;stroke-linecap:round;stroke-linejoin:round;stroke-miterlimit:10;" d="
					M84.995,165.214c2.994,1.693,6.074,3.236,9.223,4.619"/>
				<path style="fill:none;stroke:#7EB0BF;stroke-width:2;stroke-linecap:round;stroke-linejoin:round;stroke-miterlimit:10;" d="
					M88.073,172.188c0.615-1.461,1.175-2.944,1.679-4.447"/>
			</g>
			<path style="fill:#7EB0BF;" d="M99.467,158.954c2.375-1.575,4.259-3.878,5.331-6.517c1.072-2.64,1.329-5.604,0.725-8.389
				c-2.238-0.441-4.49,0.222-6.127,1.585c-1.637,1.362-2.678,3.366-3.067,5.46c-0.389,2.094-0.156,4.273,0.548,6.737
				c-1.681,0.513-3.193,1.564-4.26,2.96c0.673,0.234,1.414,0.208,2.108,0.047c0.694-0.161,1.351-0.45,2.15-0.725
				c0.115,1.117,0.519,2.203,1.162,3.123C98.776,162.058,99.137,160.649,99.467,158.954z"/>
			<path style="fill:none;stroke:#325889;stroke-width:2;stroke-linecap:round;stroke-linejoin:round;stroke-miterlimit:10;" d="
				M102.01,147.6c-0.117-0.05-0.234-0.099-0.351-0.149"/>
			<path style="fill:none;stroke:#5683A0;stroke-width:2;stroke-linecap:round;stroke-linejoin:round;stroke-miterlimit:10;" d="
				M123.643,150.874c-7.676-6.968-16.325-12.861-25.895-17.151c-9.303,6.691-16.863,15.784-21.743,26.152
				c-4.88,10.368-7.07,21.989-6.298,33.422"/>
		</g>
		<path style="fill:#52322C;" d="M83.281,272.254c6.655-13.615,17.211-31.956,25.939-43.363
			c22.505-7.783,45.601-13.861,68.259-18.341c13.934,9.186,28.261,15.532,41.671,26.048
			C175.267,250.719,125.772,268.175,83.281,272.254z"/>
		<g>
			<g>
				<path style="fill:#F6E0C5;" d="M200.046,164.854c-0.209,0.083-0.512,0.579-0.496,0.799c-0.124-0.29-0.289-0.562-0.532-0.759
					c-0.328-0.266-0.826-0.36-1.176-0.123c-0.435,0.295-0.457,0.919-0.412,1.442c-0.25-0.419-0.649-0.777-1.131-0.852
					c-0.482-0.075-1.03,0.209-1.141,0.684c-0.079,0.336,0.062,0.682,0.21,0.993c-0.382-0.362-0.963-0.54-1.456-0.354
					c-0.492,0.186-0.819,0.786-0.621,1.274c0.109,0.269,0.357,0.534,0.252,0.804c-0.374-0.311-0.953-0.338-1.362-0.074
					c-0.409,0.263-0.623,0.793-0.524,1.269c0.051,0.244,0.181,0.466,0.343,0.654c-7.777,22.646-14.509,43.013-20.045,63.354
					c0.272,1.403,1.258,2.648,2.562,3.232c1.304,0.585,2.89,0.493,4.118-0.238l18.778-62.458c0.434-1.094,1.213-1.533,2.208-1.512
					c0.364,0.667,5.421,23.414,6.008,23.577c2.178,0.604,4.973-0.053,5.834-1.921c-2.559-10.037-4.695-16.554-7.488-27.512
					c-0.075-0.295,0.629-1.014-0.109-1.635c-0.738-0.621-2.144-0.473-2.377,0.464C201.608,165.725,201.137,164.422,200.046,164.854z
					"/>
			</g>
			<path style="fill:none;stroke:#325889;stroke-width:2;stroke-linecap:round;stroke-linejoin:round;stroke-miterlimit:10;" d="
				M226.443,176.612"/>
			<path style="fill:none;stroke:#EFC380;stroke-width:2;stroke-linecap:round;stroke-linejoin:round;stroke-miterlimit:10;" d="
				M210.269,193.743c-1.291-0.377-2.781,0.039-3.689,1.032"/>
			<g>
				<path style="fill:none;stroke:#CF673B;stroke-width:2;stroke-linecap:round;stroke-linejoin:round;stroke-miterlimit:10;" d="
					M208.829,187.34c-1.172,1.869-2.345,3.738-3.517,5.606"/>
				<path style="fill:none;stroke:#CF673B;stroke-width:2;stroke-linecap:round;stroke-linejoin:round;stroke-miterlimit:10;" d="
					M206.835,180.268c-1.078,1.828-2.157,3.656-3.235,5.484"/>
				<path style="fill:none;stroke:#CF673B;stroke-width:2;stroke-linecap:round;stroke-linejoin:round;stroke-miterlimit:10;" d="
					M204.952,173.391c-1.057,1.827-2.113,3.655-3.17,5.482"/>
				<path style="fill:none;stroke:#CF673B;stroke-width:2;stroke-linecap:round;stroke-linejoin:round;stroke-miterlimit:10;" d="
					M196.221,176.745c-2.45,1.155-4.9,2.311-7.35,3.466"/>
				<path style="fill:none;stroke:#CF673B;stroke-width:2;stroke-linecap:round;stroke-linejoin:round;stroke-miterlimit:10;" d="
					M193.974,183.813c-2.616,1.424-5.232,2.849-7.847,4.274"/>
				<path style="fill:none;stroke:#CF673B;stroke-width:2;stroke-linecap:round;stroke-linejoin:round;stroke-miterlimit:10;" d="
					M191.036,192.961c-2.647,1.201-5.488,2.829-6.516,3.171"/>
				<path style="fill:none;stroke:#CF673B;stroke-width:2;stroke-linecap:round;stroke-linejoin:round;stroke-miterlimit:10;" d="
					M188.528,202.482c-2.606,1.416-4.621,1.944-7.335,3.141"/>
				<path style="fill:none;stroke:#CF673B;stroke-width:2;stroke-linecap:round;stroke-linejoin:round;stroke-miterlimit:10;" d="
					M185.302,211.475c-2.619,1.271-4.511,1.81-7.238,2.827"/>
				<path style="fill:none;stroke:#CF673B;stroke-width:2;stroke-linecap:round;stroke-linejoin:round;stroke-miterlimit:10;" d="
					M183.047,221.238c-2.569,1.153-5.191,2.186-7.856,3.096"/>
				<path style="fill:none;stroke:#CF673B;stroke-width:2;stroke-linecap:round;stroke-linejoin:round;stroke-miterlimit:10;" d="
					M172.657,233.676c2.37-0.881,4.741-1.763,7.111-2.644"/>
			</g>
			<path style="fill:none;stroke:#EFC380;stroke-width:2;stroke-linecap:round;stroke-linejoin:round;stroke-miterlimit:10;" d="
				M191.513,172.035c-7.168,19.441-13.369,41.9-19.357,63.115c0.433,1.219,1.385,2.244,2.569,2.765
				c1.184,0.521,2.583,0.531,3.775,0.027"/>
			<g>
				<path style="fill:none;stroke:#EFC380;stroke-width:2;stroke-linecap:round;stroke-linejoin:round;stroke-miterlimit:10;" d="
					M195.45,168.936c0.615,1.192,1.229,2.384,1.844,3.576"/>
				<path style="fill:none;stroke:#EFC380;stroke-width:2;stroke-linecap:round;stroke-linejoin:round;stroke-miterlimit:10;" d="
					M198.344,167.156c0.356,1.486,0.479,3.027,0.361,4.55"/>
			</g>
		</g>
		<g>
			<path style="fill:#F1F1F4;" d="M139.448,243.768c3.344-2.151,7.481-4.183,10.825-6.334c2.694,1.59,5.533,3.326,8.372,5.061
				c6.075-19.458,10.476-38.744,13.41-58.25c-3.731-6.531-7.103-13.448-10.476-20.366c-5.343,7.434-9.737,14.146-14.039,20.348
				C143.862,203.767,140.583,223.411,139.448,243.768z"/>
			<path style="fill:#F6E0C5;" d="M139.384,244.086c-11.522-1.725-23.043-3.45-34.565-5.175c2.141-20.613,4.392-40.483,6.643-60.353
				c5.082-6.31,10.193-12.489,15.303-18.667c11.927,1.221,23.165,2.549,34.751,4.114c-4.575,6.669-9.151,13.338-13.655,19.454
				C146.146,203.917,143.394,224.288,139.384,244.086z"/>
			<path style="fill:none;stroke:#F6E0C5;stroke-width:2;stroke-linecap:round;stroke-linejoin:round;stroke-miterlimit:10;" d="
				M152.19,184.701c2.235-1.223,4.469-2.446,6.704-3.669c3.643,0.7,7.218,1.756,10.657,3.149"/>
			<path style="fill:none;stroke:#F6E0C5;stroke-width:2;stroke-linecap:round;stroke-linejoin:round;stroke-miterlimit:10;" d="
				M162.241,165.159c3.594,6.236,7.188,12.471,10.72,18.308c-4.539,19.863-9.078,39.725-13.617,59.588"/>
			<path style="fill:none;stroke:#F1F1F4;stroke-width:2;stroke-linecap:round;stroke-linejoin:round;stroke-miterlimit:10;" d="
				M115.405,179.482c7.584,1.532,15.241,2.698,22.937,3.495"/>
			<path style="fill:#EDBA94;" d="M145.044,163.006c-0.273,2.126-0.547,4.251-0.82,6.377c-1.56,0.699-3.09,1.051-4.605,1.091
				c-1.515,0.04-3.023-0.219-4.498-0.571c-1.368-0.327-2.87-0.859-3.474-2.129c0.17-2.231,0.316-4.198,0.51-6.039
				C136.225,161.328,140.358,161.584,145.044,163.006z"/>
			<path style="fill:#F6E0C5;" d="M143.604,158.904c-3.459-1.607-7.731-1.316-10.941,0.744c-0.483,0.31-0.996,0.776-0.914,1.344
				c0.074,0.508,0.589,0.815,1.059,1.022c3.108,1.364,6.603,1.505,9.997,1.447c0.818-0.014,1.74-0.087,2.265-0.714
				c0.467-0.559,0.445-1.407,0.126-2.061C144.877,160.03,144.463,159.303,143.604,158.904z"/>
			<g>
				<path style="fill:none;stroke:#D78A4B;stroke-width:2;stroke-linecap:round;stroke-linejoin:round;stroke-miterlimit:10;" d="
					M113.015,203.977c0.357-2.44,0.582-4.898,0.861-7.449c0.793,1.167,1.586,2.335,2.854,3.864c0.908-1.574,2.049-3.013,4.108-4.225
					c-0.268,3.242-0.337,6.501-0.208,9.752"/>
				<path style="fill:none;stroke:#D78A4B;stroke-width:2;stroke-linecap:round;stroke-linejoin:round;stroke-miterlimit:10;" d="
					M124.644,196.486c-0.205,3.358-0.409,6.716-0.614,10.074"/>
				<path style="fill:none;stroke:#D78A4B;stroke-width:2;stroke-linecap:round;stroke-linejoin:round;stroke-miterlimit:10;" d="
					M129.01,197.018c-0.358,2.931-0.716,5.863-1.073,8.794c1.19,0.045,2.379,0.09,3.569,0.135"/>
				<path style="fill:none;stroke:#D78A4B;stroke-width:2;stroke-linecap:round;stroke-linejoin:round;stroke-miterlimit:10;" d="
					M136.249,198.222c-0.439,3.148-0.878,6.296-1.318,9.444"/>
				<path style="fill:none;stroke:#D78A4B;stroke-width:2;stroke-linecap:round;stroke-linejoin:round;stroke-miterlimit:10;" d="
					M139.933,200.355c-1.292,1.253-2.585,2.506-3.022,3.521c0.969,1.293,1.937,2.586,2.905,3.88"/>
			</g>
			<g>
				<path style="fill:#EFC380;" d="M139.384,244.086c1.355-6.692,2.556-13.454,3.632-20.258c-2.177-1.514-4.797-2.399-7.451-2.432
					c-4.063-0.05-8.279,1.733-12.067,0.263c-4.217-1.637-6.078-6.595-9.705-9.299c-1.7-1.267-3.789-1.93-5.904-2.006
					c-1.04,9.408-2.068,18.9-3.071,28.558C116.34,240.636,127.862,242.361,139.384,244.086z"/>
			</g>
		</g>
		<g>
			<path style="fill:#CA4F23;" d="M129.753,260.401c2.806-2.903,4.527-5.9,5.429-9.835c-9.507-10.17-18.097-20.733-26.285-31.599
				c1.167-1.208,1.999-2.347,2.275-3.616c-0.397-0.001-0.794-0.002-1.191-0.003c-6.26,1.18-12.056,4.127-16.927,8.235
				c-11.508,9.705-13.385,16.21-13.253,17.145c0.086,0.612,3.312-0.442,3.241-0.613c9.282,7.974,18.627,15.965,27.961,24.29
				C111.65,264.312,129.218,260.955,129.753,260.401z"/>
			<path style="fill:none;stroke:#CF673B;stroke-width:2;stroke-linecap:round;stroke-linejoin:round;stroke-miterlimit:10;" d="
				M93.212,243.595c6.262-2.702,11.927-6.776,16.484-11.85"/>
			<path style="fill:none;stroke:#CF673B;stroke-width:2;stroke-linecap:round;stroke-linejoin:round;stroke-miterlimit:10;" d="
				M97.125,247.271c7.16-2.39,13.593-6.913,18.264-12.842"/>
			<path style="fill:none;stroke:#CF673B;stroke-width:2;stroke-linecap:round;stroke-linejoin:round;stroke-miterlimit:10;" d="
				M101.943,251.024c6.613-1.861,12.465-6.294,16.047-12.156"/>
			<path style="fill:none;stroke:#CF673B;stroke-width:2;stroke-linecap:round;stroke-linejoin:round;stroke-miterlimit:10;" d="
				M107.421,254.959c6.017-2.509,11.352-6.633,15.297-11.824"/>
			<path style="fill:none;stroke:#CF673B;stroke-width:2;stroke-linecap:round;stroke-linejoin:round;stroke-miterlimit:10;" d="
				M111.892,258.446c4.763-1.713,9.065-4.692,12.343-8.549"/>
			<path style="fill:none;stroke:#664945;stroke-width:2;stroke-linecap:round;stroke-linejoin:round;stroke-miterlimit:10;" d="
				M109.422,219.325c8.547,10.577,17.094,21.154,25.641,31.73"/>
			<path style="fill:#F6E0C5;" d="M82.429,238.08c5.458-9.724,14.67-17.277,25.576-20.554c-2.325,3.542-5.68,6.26-8.98,8.918
				C93.749,230.694,88.44,234.965,82.429,238.08z"/>
			<path style="fill:none;stroke:#CF673B;stroke-width:2;stroke-linecap:round;stroke-linejoin:round;stroke-miterlimit:10;" d="
				M79.788,240.891c13.193-3.788,24.769-12.915,31.53-24.86"/>
		</g>
		<g>
			<g>
				<path style="fill:#EAA94E;" d="M216.631,258.052c-0.29-2.473-0.564-5.076,0.403-7.371c0.445-1.057,1.254-2,2.221-2.626
					c-0.507-3.671-1.015-7.343-1.511-11.005c-3.362-0.372-131.364,34.323-134.232,35.267c1.771,3.57,3.543,7.141,5.314,10.711
					c1.424,0.518,2.731,1.362,3.813,2.386c2.549,2.413,4.113,5.658,5.631,8.823c15.915,33.18,32.784,65.891,49.723,98.561
					c28.76-8.178,57.128-17.641,84.654-28.05C224.992,329.129,220.797,293.542,216.631,258.052z"/>
			</g>
			<path style="fill:none;stroke:#CF673B;stroke-width:2;stroke-linecap:round;stroke-linejoin:round;stroke-miterlimit:10;" d="
				M84.339,272.864c1.547,3.433,3.093,6.867,4.639,10.3c19.248-1.918,38.348-5.33,57.07-10.196"/>
			<path style="fill:none;stroke:#CF673B;stroke-width:2;stroke-linecap:round;stroke-linejoin:round;stroke-miterlimit:10;" d="
				M191.601,378.707c13.209-5.022,26.747-9.178,40.498-12.432c-4.836-32.817-9.765-65.729-14.693-98.64
				c-1.031-6.885-1.838-14.673,2.747-19.751c-0.729-4.175-1.602-8.324-2.617-12.439"/>
			<path style="fill:none;stroke:#EFC380;stroke-width:2;stroke-linecap:round;stroke-linejoin:round;stroke-miterlimit:10;" d="
				M106.78,297.975c8.147,16.772,16.295,33.544,24.442,50.316"/>
			<path style="fill:none;stroke:#EFC380;stroke-width:2;stroke-linecap:round;stroke-linejoin:round;stroke-miterlimit:10;" d="
				M135.164,355.709c2.4,4.462,4.801,8.925,7.201,13.387"/>
			<path style="fill:none;stroke:#CF673B;stroke-width:2;stroke-linecap:round;stroke-linejoin:round;stroke-miterlimit:10;" d="
				M209.166,252.245c-14.158,4.885-28.315,9.769-42.473,14.654"/>
			<g>
				<path style="fill:none;stroke:#F6E0C5;stroke-width:4;stroke-linecap:round;stroke-linejoin:round;stroke-miterlimit:10;" d="
					M152.089,312.709c2.409-7.802,5.407-15.422,9.792-23.064c4.533,4.559,9.337,8.849,14.376,12.84"/>
				<path style="fill:none;stroke:#F6E0C5;stroke-width:4;stroke-linecap:round;stroke-linejoin:round;stroke-miterlimit:10;" d="
					M167.338,302.601c3.475,0.287,6.932,0.781,10.348,1.478c-1.122-3.003-2.044-6.08-2.76-9.205"/>
				<path style="fill:none;stroke:#F6E0C5;stroke-width:4;stroke-linecap:round;stroke-linejoin:round;stroke-miterlimit:10;" d="
					M189.876,312.806c3.487,4.025,6.974,8.049,10.681,12.608c-4.756,2.898-9.673,5.531-14.722,7.882"/>
				<path style="fill:none;stroke:#F6E0C5;stroke-width:4;stroke-linecap:round;stroke-linejoin:round;stroke-miterlimit:10;" d="
					M187.057,328.409c-1.494,2.119-2.988,4.237-4.508,7.119c3.371-0.256,6.743-0.512,10.114-0.768"/>
				<path style="fill:none;stroke:#F6E0C5;stroke-width:4;stroke-linecap:round;stroke-linejoin:round;stroke-miterlimit:10;" d="
					M173.668,339.393c-7.046,1.39-14.092,2.78-21.24,4.169c-0.819-6.143-0.964-12.377-0.431-18.552"/>
				<path style="fill:none;stroke:#F6E0C5;stroke-width:4;stroke-linecap:round;stroke-linejoin:round;stroke-miterlimit:10;" d="
					M146.35,332.276c1.354-3.157,3.093-6.149,5.167-8.888c1.839,3.171,3.617,6.378,5.332,9.618"/>
			</g>
			<path style="fill:none;stroke:#EFC380;stroke-width:2;stroke-linecap:round;stroke-linejoin:round;stroke-miterlimit:10;" d="
				M189.674,219.291c8.943,5.656,17.887,11.311,27.887,16.467c-36.923,11.427-74.32,21.398-112.064,29.881"/>
		</g>
		<g>
			<path style="fill:#7EB0BF;" d="M174.477,54.245c0.692,2.984,3.431,5.374,6.481,5.655c2.055,0.189,4.223-0.477,6.143,0.28
				c1.496,0.59,2.541,1.936,3.479,3.242c1.915,2.669,3.717,5.455,4.901,8.52c0.575,1.487,1.003,3.101,0.703,4.667
				c-0.3,1.566-1.507,3.049-3.374,3.473c0.798-0.355,1.848,0.052,2.198,0.852c0.35,0.8-0.063,1.848-0.866,2.192
				c0.913,0.042,1.759,0.73,1.986,1.616c0.227,0.885-0.184,1.896-0.964,2.371c0.865,0.051,1.651,0.743,1.811,1.595
				c0.16,0.852-0.322,1.782-1.207,2.417c1.084-0.585,2.48-0.26,3.465,0.48c0.985,0.74,1.645,1.823,2.266,2.887
				c4.118,7.067,7.561,14.552,9.897,22.391c0.679,2.277,1.268,4.662,0.894,7.008c-0.465,2.91-2.503,5.52-5.215,6.676l-17.919,6.863
				c-2.828,0.83-6.06,0.109-8.268-1.843c-1.779-1.574-2.839-3.791-3.762-5.98c-3.175-7.538-5.27-15.506-6.579-23.58
				c-0.197-1.216-0.375-2.472-0.084-3.669c0.291-1.197,1.162-2.335,2.372-2.572c-1.087,0.072-2.05-0.34-2.467-1.1
				c-0.418-0.759-0.25-1.793,0.385-2.382c-0.905,0.128-1.864-0.391-2.251-1.219c-0.387-0.828-0.171-1.897,0.507-2.509
				c-0.839,0.243-1.824-0.303-2.062-1.143c-0.238-0.841,0.314-1.822,1.157-2.054c-1.711,0.858-3.586,0.479-4.812-0.539
				c-1.227-1.019-1.921-2.537-2.422-4.051c-1.032-3.119-1.41-6.415-1.626-9.694c-0.106-1.605-0.154-3.308,0.627-4.714
				c1.002-1.805,3.099-2.667,4.567-4.119c2.177-2.154,2.775-5.74,1.414-8.484L174.477,54.245z"/>
			<path style="fill:#CF673B;" d="M162.658,52.656c0.464,1.981,1.03,3.939,1.634,5.996c4.252,1.031,9.016-0.438,12.284-3.646
				c-0.753-1.336-2.211-4.236-3.489-6.502C169.671,49.646,166.314,51.307,162.658,52.656z"/>
			<path style="fill:#D78A4B;" d="M173.132,48.342c-1.808-0.562-3.792-0.545-5.591,0.049c-1.798,0.594-3.403,1.761-4.521,3.289
				c-0.248,0.34-0.479,0.795-0.268,1.16c0.218,0.377,0.749,0.389,1.183,0.352c1.85-0.159,3.723-0.37,5.447-1.06
				C171.105,51.443,172.687,50.212,173.132,48.342z"/>
			<path style="fill:none;stroke:#F6E0C5;stroke-width:2;stroke-linecap:round;stroke-linejoin:round;stroke-miterlimit:10;" d="
				M171.486,49.373c-0.939,1.194-2.305,2.043-3.791,2.357"/>
			<path style="fill:none;stroke:#CA4F23;stroke-width:2;stroke-linecap:round;stroke-linejoin:round;stroke-miterlimit:10;" d="
				M165.246,54.2c0.274,1.254,0.548,2.507,0.822,3.761"/>
			<path style="fill:none;stroke:#CA4F23;stroke-width:2;stroke-linecap:round;stroke-linejoin:round;stroke-miterlimit:10;" d="
				M169.337,53.715c0.288,1.162,0.766,2.276,1.411,3.285"/>
			<path style="fill:none;stroke:#CA4F23;stroke-width:2;stroke-linecap:round;stroke-linejoin:round;stroke-miterlimit:10;" d="
				M171.191,53.095c0.597,0.991,1.195,1.982,1.792,2.973"/>
			<path style="fill:none;stroke:#CA4F23;stroke-width:2;stroke-linecap:round;stroke-linejoin:round;stroke-miterlimit:10;" d="
				M172.814,51.66c0.627,0.901,1.253,1.801,1.88,2.702"/>
			<path style="fill:none;stroke:#CA4F23;stroke-width:2;stroke-linecap:round;stroke-linejoin:round;stroke-miterlimit:10;" d="
				M167.275,54.335c0.324,1.048,0.649,2.096,0.973,3.144"/>
			<path style="fill:none;stroke:#F1F1F4;stroke-width:2;stroke-linecap:round;stroke-linejoin:round;stroke-miterlimit:10;" d="
				M162.59,78.055c0.149,1.217,0.299,2.441,0.668,3.61c0.369,1.169,0.974,2.291,1.902,3.092c0.928,0.801,2.208,1.244,3.407,0.989"/>
			<path style="fill:none;stroke:#F1F1F4;stroke-width:2;stroke-linecap:round;stroke-linejoin:round;stroke-miterlimit:10;" d="
				M181.998,63.284c1.346-0.868,3.18-0.642,4.56,0.172c1.38,0.814,2.393,2.119,3.31,3.432"/>
			<path style="fill:none;stroke:#F1F1F4;stroke-width:2;stroke-linecap:round;stroke-linejoin:round;stroke-miterlimit:10;" d="
				M190.356,68.557c0.48,0.916,0.884,1.871,1.208,2.853"/>
			<path style="fill:none;stroke:#5683A0;stroke-width:2;stroke-linecap:round;stroke-linejoin:round;stroke-miterlimit:10;" d="
				M172.616,87.991c4.369-1.138,8.737-2.275,13.106-3.413"/>
			<path style="fill:none;stroke:#5683A0;stroke-width:2;stroke-linecap:round;stroke-linejoin:round;stroke-miterlimit:10;" d="
				M175.832,90.606c5.118-1.654,10.236-3.309,15.354-4.963"/>
			<path style="fill:none;stroke:#5683A0;stroke-width:2;stroke-linecap:round;stroke-linejoin:round;stroke-miterlimit:10;" d="
				M173.565,95.692c3.474-1.068,6.947-2.136,10.421-3.204"/>
			<path style="fill:none;stroke:#5683A0;stroke-width:2;stroke-linecap:round;stroke-linejoin:round;stroke-miterlimit:10;" d="
				M177.422,98.763c5.607-1.887,11.214-3.774,16.821-5.661"/>
			<path style="fill:none;stroke:#F1F1F4;stroke-width:2;stroke-linecap:round;stroke-linejoin:round;stroke-miterlimit:10;" d="
				M196.619,97.551c0.884-0.13,1.782,0.266,2.449,0.861c0.667,0.595,1.14,1.373,1.584,2.148c1.642,2.865,3.036,5.872,4.164,8.976"/>
			<path style="fill:none;stroke:#F1F1F4;stroke-width:2;stroke-linecap:round;stroke-linejoin:round;stroke-miterlimit:10;" d="
				M205.366,111.578c0.375,0.973,0.749,1.946,1.124,2.919"/>
			<path style="fill:none;stroke:#5683A0;stroke-width:2;stroke-linecap:round;stroke-linejoin:round;stroke-miterlimit:10;" d="
				M186.516,133.274c5.56-5.285,13.354-8.138,21.012-7.692"/>
			<path style="fill:none;stroke:#F1F1F4;stroke-width:2;stroke-linecap:round;stroke-linejoin:round;stroke-miterlimit:10;" d="
				M178.077,119.954c0.884,4.405,3.009,8.555,6.068,11.846"/>
			<path style="fill:none;stroke:#5683A0;stroke-width:2;stroke-linecap:round;stroke-linejoin:round;stroke-miterlimit:10;" d="
				M166.607,61.235c0.461,1.774-0.635,3.592-1.963,4.856c-1.328,1.264-2.944,2.249-4.016,3.737c-1.45,2.014-1.689,4.669-1.422,7.136
				c0.266,2.467,0.81,6.633,1.248,7.336"/>
			<path style="fill:none;stroke:#5683A0;stroke-width:2;stroke-linecap:round;stroke-linejoin:round;stroke-miterlimit:10;" d="
				M170.321,105.457c1.314,9.461,4.244,18.755,9.147,26.952c0.964,1.612,2.066,3.24,3.706,4.156
				c1.473,0.822,3.243,0.978,4.915,0.755c1.672-0.223,3.273-0.8,4.86-1.372"/>
			<path style="fill:none;stroke:#5683A0;stroke-width:2;stroke-linecap:round;stroke-linejoin:round;stroke-miterlimit:10;" d="
				M195.872,91.274c1.943-0.559,3.899,0.828,5.244,2.338c2.847,3.196,4.552,7.222,6.207,11.169"/>
			<path style="fill:#567F6E;" d="M174.477,54.245c0.692,2.984,3.431,5.374,6.481,5.655c2.055,0.189,4.223-0.477,6.143,0.28
				c1.496,0.59,2.541,1.936,3.479,3.242c1.915,2.669,3.717,5.455,4.901,8.52c0.575,1.487,1.003,3.101,0.703,4.667
				c-0.3,1.566-1.507,3.049-3.374,3.473c0.798-0.355,1.848,0.052,2.198,0.852c0.35,0.8-0.063,1.848-0.866,2.192
				c0.913,0.042,1.759,0.73,1.986,1.616c0.227,0.885-0.184,1.896-0.964,2.371c0.865,0.051,1.651,0.743,1.811,1.595
				c0.16,0.852-0.322,1.782-1.207,2.417c1.084-0.585,2.48-0.26,3.465,0.48c0.985,0.74,1.645,1.823,2.266,2.887
				c4.118,7.067,7.561,14.552,9.897,22.391c0.679,2.277,1.268,4.662,0.894,7.008c-0.465,2.91-2.503,5.52-5.215,6.676l-17.919,6.863
				c-2.828,0.83-6.06,0.109-8.268-1.843c-1.779-1.574-2.839-3.791-3.762-5.98c-3.175-7.538-5.27-15.506-6.579-23.58
				c-0.197-1.216-0.375-2.472-0.084-3.669c0.291-1.197,1.162-2.335,2.372-2.572c-1.087,0.072-2.05-0.34-2.467-1.1
				c-0.418-0.759-0.25-1.793,0.385-2.382c-0.905,0.128-1.864-0.391-2.251-1.219c-0.387-0.828-0.171-1.897,0.507-2.509
				c-0.839,0.243-1.824-0.303-2.062-1.143c-0.238-0.841,0.314-1.822,1.157-2.054c-1.711,0.858-3.586,0.479-4.812-0.539
				c-1.227-1.019-1.921-2.537-2.422-4.051c-1.032-3.119-1.41-6.415-1.626-9.694c-0.106-1.605-0.154-3.308,0.627-4.714
				c1.002-1.805,3.099-2.667,4.567-4.119c2.177-2.154,2.775-5.74,1.414-8.484L174.477,54.245z"/>
			<path style="fill:#CF673B;" d="M162.658,52.656c0.464,1.981,1.03,3.939,1.634,5.996c4.252,1.031,9.016-0.438,12.284-3.646
				c-0.753-1.336-2.211-4.236-3.489-6.502C169.671,49.646,166.314,51.307,162.658,52.656z"/>
			<path style="fill:#D78A4B;" d="M173.132,48.342c-1.808-0.562-3.792-0.545-5.591,0.049c-1.798,0.594-3.403,1.761-4.521,3.289
				c-0.248,0.34-0.479,0.795-0.268,1.16c0.218,0.377,0.749,0.389,1.183,0.352c1.85-0.159,3.723-0.37,5.447-1.06
				C171.105,51.443,172.687,50.212,173.132,48.342z"/>
			<path style="fill:none;stroke:#F6E0C5;stroke-width:2;stroke-linecap:round;stroke-linejoin:round;stroke-miterlimit:10;" d="
				M171.486,49.373c-0.939,1.194-2.305,2.043-3.791,2.357"/>
			<path style="fill:none;stroke:#CA4F23;stroke-width:2;stroke-linecap:round;stroke-linejoin:round;stroke-miterlimit:10;" d="
				M165.246,54.2c0.274,1.254,0.548,2.507,0.822,3.761"/>
			<path style="fill:none;stroke:#CA4F23;stroke-width:2;stroke-linecap:round;stroke-linejoin:round;stroke-miterlimit:10;" d="
				M169.337,53.715c0.288,1.162,0.766,2.276,1.411,3.285"/>
			<path style="fill:none;stroke:#CA4F23;stroke-width:2;stroke-linecap:round;stroke-linejoin:round;stroke-miterlimit:10;" d="
				M171.191,53.095c0.597,0.991,1.195,1.982,1.792,2.973"/>
			<path style="fill:none;stroke:#CA4F23;stroke-width:2;stroke-linecap:round;stroke-linejoin:round;stroke-miterlimit:10;" d="
				M172.814,51.66c0.627,0.901,1.253,1.801,1.88,2.702"/>
			<path style="fill:none;stroke:#CA4F23;stroke-width:2;stroke-linecap:round;stroke-linejoin:round;stroke-miterlimit:10;" d="
				M167.275,54.335c0.324,1.048,0.649,2.096,0.973,3.144"/>
			<path style="fill:none;stroke:#7EB0BF;stroke-width:2;stroke-linecap:round;stroke-linejoin:round;stroke-miterlimit:10;" d="
				M162.59,78.055c0.149,1.217,0.299,2.441,0.668,3.61c0.369,1.169,0.974,2.291,1.902,3.092c0.928,0.801,2.208,1.244,3.407,0.989"/>
			<path style="fill:none;stroke:#7EB0BF;stroke-width:2;stroke-linecap:round;stroke-linejoin:round;stroke-miterlimit:10;" d="
				M181.998,63.284c1.346-0.868,3.18-0.642,4.56,0.172c1.38,0.814,2.393,2.119,3.31,3.432"/>
			<path style="fill:none;stroke:#7EB0BF;stroke-width:2;stroke-linecap:round;stroke-linejoin:round;stroke-miterlimit:10;" d="
				M190.356,68.557c0.48,0.916,0.884,1.871,1.208,2.853"/>
			<path style="fill:none;stroke:#3C6256;stroke-width:2;stroke-linecap:round;stroke-linejoin:round;stroke-miterlimit:10;" d="
				M172.616,87.991c4.369-1.138,8.737-2.275,13.106-3.413"/>
			<path style="fill:none;stroke:#3C6256;stroke-width:2;stroke-linecap:round;stroke-linejoin:round;stroke-miterlimit:10;" d="
				M175.832,90.606c5.118-1.654,10.236-3.309,15.354-4.963"/>
			<path style="fill:none;stroke:#3C6256;stroke-width:2;stroke-linecap:round;stroke-linejoin:round;stroke-miterlimit:10;" d="
				M173.565,95.692c3.474-1.068,6.947-2.136,10.421-3.204"/>
			<path style="fill:none;stroke:#3C6256;stroke-width:2;stroke-linecap:round;stroke-linejoin:round;stroke-miterlimit:10;" d="
				M177.422,98.763c5.607-1.887,11.214-3.774,16.821-5.661"/>
			<path style="fill:none;stroke:#7EB0BF;stroke-width:2;stroke-linecap:round;stroke-linejoin:round;stroke-miterlimit:10;" d="
				M196.619,97.551c0.884-0.13,1.782,0.266,2.449,0.861c0.667,0.595,1.14,1.373,1.584,2.148c1.642,2.865,3.036,5.872,4.164,8.976"/>
			<path style="fill:none;stroke:#7EB0BF;stroke-width:2;stroke-linecap:round;stroke-linejoin:round;stroke-miterlimit:10;" d="
				M205.366,111.578c0.375,0.973,0.749,1.946,1.124,2.919"/>
			<path style="fill:none;stroke:#3C6256;stroke-width:2;stroke-linecap:round;stroke-linejoin:round;stroke-miterlimit:10;" d="
				M186.516,133.274c5.56-5.285,13.354-8.138,21.012-7.692"/>
			<path style="fill:none;stroke:#7EB0BF;stroke-width:2;stroke-linecap:round;stroke-linejoin:round;stroke-miterlimit:10;" d="
				M178.077,119.954c0.884,4.405,3.009,8.555,6.068,11.846"/>
			<path style="fill:none;stroke:#5683A0;stroke-width:2;stroke-linecap:round;stroke-linejoin:round;stroke-miterlimit:10;" d="
				M166.607,61.235c0.461,1.774-0.635,3.592-1.963,4.856c-1.328,1.264-2.944,2.249-4.016,3.737c-1.45,2.014-1.689,4.669-1.422,7.136
				c0.266,2.467,0.81,6.633,1.248,7.336"/>
			<path style="fill:none;stroke:#3C6256;stroke-width:2;stroke-linecap:round;stroke-linejoin:round;stroke-miterlimit:10;" d="
				M170.321,105.457c1.314,9.461,4.244,18.755,9.147,26.952c0.964,1.612,2.066,3.24,3.706,4.156
				c1.473,0.822,3.243,0.978,4.915,0.755c1.672-0.223,3.273-0.8,4.86-1.372"/>
			<path style="fill:none;stroke:#3C6256;stroke-width:2;stroke-linecap:round;stroke-linejoin:round;stroke-miterlimit:10;" d="
				M195.872,91.274c1.943-0.559,3.899,0.828,5.244,2.338c2.847,3.196,4.552,7.222,6.207,11.169"/>
		</g>
	</g>
	<g>
		<g>
			<path style="fill:#9E9C4D;" d="M314.115,91.47c-1.769-1.847-3.345-3.902-4.457-6.205c-1.111-2.303-1.745-4.867-1.596-7.419
				c0.026-0.446,0.126-0.967,0.529-1.16c0.419-0.201,0.904,0.077,1.265,0.37c1.203,0.98,2.149,2.272,2.719,3.715
				c-1.43-2.949-1.853-6.335-1.444-9.587c0.122-0.967,0.326-1.953,0.87-2.762c0.544-0.808,1.496-1.405,2.462-1.28
				c0.78,0.101,1.446,0.651,1.867,1.315c0.421,0.664,0.633,1.437,0.821,2.201c0.785,3.198,1.243,6.503,1.005,9.788
				c0.076-1.266,0.896-2.461,2.05-2.986c0.418-0.191,0.923-0.292,1.327-0.073c0.48,0.261,0.642,0.871,0.669,1.417
				c0.065,1.279-0.34,2.548-0.949,3.675c-0.609,1.127-1.417,2.132-2.22,3.13C317.424,87.608,315.816,89.607,314.115,91.47z"/>
			<path style="fill:#9E9C4D;" d="M304.908,86.451c-1.192,1.254-2.51,2.409-4.025,3.245c-1.515,0.836-3.24,1.343-4.968,1.253
				c-0.398-0.021-0.805-0.077-1.151-0.274c-0.346-0.197-0.619-0.564-0.606-0.962c0.013-0.387,0.28-0.714,0.551-0.991
				c1.092-1.115,2.481-1.936,3.984-2.356c-2.825,0.607-5.76-0.079-8.519-0.938c-3.268-1.017-6.607-2.385-8.778-5.03
				c-0.751-0.915-1.349-2.215-0.767-3.246c0.442-0.784,1.404-1.099,2.293-1.239c2.72-0.429,5.522,0.166,8.06,1.234
				c2.538,1.068,4.853,2.593,7.151,4.109c-1.087-0.584-1.966-1.548-2.446-2.685c-0.258-0.611-0.377-1.385,0.06-1.884
				c0.362-0.412,1.002-0.482,1.522-0.306c0.52,0.176,0.945,0.55,1.345,0.926C301.232,79.773,303.397,82.718,304.908,86.451z"/>
			<path style="fill:#9E9C4D;" d="M321.639,98.863c-0.926,2.277-2.675,4.209-4.849,5.355c-0.5,0.264-1.101,0.488-1.616,0.255
				c-0.599-0.271-0.794-1.074-0.597-1.702c0.196-0.628,0.678-1.118,1.143-1.583c-2.043,1.668-4.302,3.105-6.786,3.99
				c-2.484,0.886-5.206,1.201-7.783,0.64c-0.754-0.164-1.51-0.411-2.112-0.892c-0.603-0.481-1.031-1.234-0.961-2.001
				c0.106-1.153,1.222-1.92,2.268-2.418c3.922-1.866,8.347-2.305,12.67-2.717c-0.617,0.153-1.255,0.308-1.882,0.202
				c-0.627-0.105-1.244-0.541-1.355-1.167c-0.109-0.615,0.309-1.231,0.858-1.528c0.549-0.297,1.2-0.335,1.823-0.315
				C315.595,95.087,318.526,96.501,321.639,98.863z"/>
			<path style="fill:none;stroke:#666537;stroke-width:2;stroke-linecap:round;stroke-linejoin:round;stroke-miterlimit:10;" d="
				M292.405,82.095c6.454,1.592,12.797,3.853,18.453,7.345s10.614,8.276,13.693,14.168"/>
			<path style="fill:none;stroke:#666537;stroke-width:2;stroke-linecap:round;stroke-linejoin:round;stroke-miterlimit:10;" d="
				M314.392,91.628c-0.317-5.729,0.204-11.505,1.542-17.084"/>
			<path style="fill:none;stroke:#666537;stroke-width:2;stroke-linecap:round;stroke-linejoin:round;stroke-miterlimit:10;" d="
				M321.34,99.21c-5.411-0.06-10.831,0.968-15.844,3.006"/>
			<path style="fill:none;stroke:#4F5130;stroke-width:2;stroke-linecap:round;stroke-linejoin:round;stroke-miterlimit:10;" d="
				M280.442,77.987c-0.008,1.46,1.097,2.671,2.221,3.602c3.357,2.78,7.56,4.525,11.899,4.941"/>
			<path style="fill:none;stroke:#4F5130;stroke-width:2;stroke-linecap:round;stroke-linejoin:round;stroke-miterlimit:10;" d="
				M294.65,90.306c2.466,1.08,5.538,0.603,7.561-1.174"/>
			<path style="fill:none;stroke:#4F5130;stroke-width:2;stroke-linecap:round;stroke-linejoin:round;stroke-miterlimit:10;" d="
				M308.826,76.887c-0.632,0.756-0.659,1.84-0.554,2.819c0.216,2.001,0.862,3.954,1.883,5.689"/>
			<path style="fill:none;stroke:#4F5130;stroke-width:2;stroke-linecap:round;stroke-linejoin:round;stroke-miterlimit:10;" d="
				M312.285,79.771c-0.643-1.604-1.143-3.28-1.296-5.001c-0.153-1.722,0.055-3.497,0.775-5.068c0.485-1.058,1.355-2.101,2.517-2.161
				c0.854-0.044,1.659,0.474,2.181,1.151c0.522,0.677,0.811,1.5,1.092,2.308"/>
			<path style="fill:none;stroke:#4F5130;stroke-width:2;stroke-linecap:round;stroke-linejoin:round;stroke-miterlimit:10;" d="
				M310.072,96.945c-0.02-0.68,0.506-1.286,1.134-1.548c0.628-0.262,1.336-0.242,2.011-0.162c3.108,0.369,5.952,1.912,8.55,3.657"/>
			<path style="fill:none;stroke:#4F5130;stroke-width:2;stroke-linecap:round;stroke-linejoin:round;stroke-miterlimit:10;" d="
				M300.044,105.153c-0.85-0.047-1.564-0.921-1.648-1.808c-0.084-0.887,0.302-1.793,0.974-2.298c1.879-1.414,6.23-2.778,9.049-2.747
				"/>
		</g>
		<g>
			<path style="fill:#9E9C4D;" d="M414.687,246.622c3.363-5.06,7.31-9.784,12.072-13.557c4.762-3.773,10.377-6.574,16.373-7.556
				c1.048-0.172,2.307-0.21,2.964,0.624c0.683,0.867,0.291,2.136-0.202,3.124c-1.647,3.298-4.152,6.163-7.2,8.234
				c6.094-4.846,13.727-7.587,21.478-8.329c2.304-0.22,4.698-0.259,6.855,0.583c2.157,0.841,4.034,2.739,4.246,5.044
				c0.171,1.861-0.759,3.691-2.08,5.013c-1.321,1.322-3.002,2.215-4.676,3.046c-7.008,3.482-14.433,6.26-22.172,7.414
				c2.976-0.482,6.171,0.799,7.989,3.203c0.659,0.871,1.157,1.988,0.858,3.039c-0.356,1.249-1.687,1.94-2.938,2.288
				c-2.933,0.815-6.084,0.534-9.014-0.293c-2.93-0.827-5.68-2.178-8.411-3.522C425.36,252.289,419.892,249.599,414.687,246.622z"/>
			<path style="fill:#9E9C4D;" d="M421.542,222.669c-3.527-2.112-6.889-4.569-9.615-7.646s-4.798-6.815-5.486-10.868
				c-0.158-0.933-0.241-1.908,0.037-2.812c0.278-0.904,0.985-1.728,1.915-1.904c0.903-0.171,1.801,0.277,2.583,0.762
				c3.152,1.954,5.778,4.748,7.534,8.014c-2.875-6.235-2.809-13.395-2.251-20.239c0.66-8.104,2.098-16.557,7.103-22.965
				c1.731-2.216,4.434-4.278,7.127-3.465c2.047,0.618,3.278,2.685,4.064,4.673c2.407,6.083,2.484,12.89,1.326,19.33
				c-1.158,6.439-3.491,12.599-5.813,18.716c0.788-2.825,2.568-5.362,4.955-7.066c1.283-0.915,3.015-1.595,4.399-0.839
				c1.144,0.625,1.638,2.073,1.5,3.369c-0.138,1.296-0.785,2.477-1.449,3.599C435.116,210.676,429.412,217.224,421.542,222.669z"/>
			<path style="fill:#9E9C4D;" d="M401.456,267.906c-5.76-0.963-11.148-4.016-14.936-8.461c-0.871-1.023-1.704-2.299-1.431-3.614
				c0.318-1.529,2.078-2.398,3.635-2.269c1.557,0.129,2.944,0.99,4.263,1.828c-4.928-3.869-9.433-8.362-12.777-13.661
				c-3.343-5.299-5.488-11.447-5.526-17.712c-0.011-1.832,0.169-3.713,0.971-5.361c0.802-1.647,2.324-3.032,4.142-3.267
				c2.729-0.352,5.087,1.836,6.783,4.002c6.363,8.124,9.68,18.156,12.881,27.966c-0.676-1.351-1.365-2.75-1.447-4.258
				c-0.082-1.508,0.608-3.167,2.002-3.748c1.369-0.571,3.015,0.078,3.989,1.197c0.974,1.119,1.401,2.607,1.677,4.064
				C407.071,251.933,405.315,259.461,401.456,267.906z"/>
			<path style="fill:none;stroke:#666537;stroke-width:2;stroke-linecap:round;stroke-linejoin:round;stroke-miterlimit:10;" d="
				M425.148,191.415c-0.34,15.791-2.285,31.672-7.446,46.6c-5.161,14.928-13.676,28.91-25.736,39.109"/>
			<path style="fill:none;stroke:#666537;stroke-width:2;stroke-linecap:round;stroke-linejoin:round;stroke-miterlimit:10;" d="
				M414.466,247.346c13.119-3.712,26.78-5.504,40.413-5.3"/>
			<path style="fill:none;stroke:#666537;stroke-width:2;stroke-linecap:round;stroke-linejoin:round;stroke-miterlimit:10;" d="
				M400.496,267.394c-2.671-12.576-7.871-24.61-15.2-35.173"/>
			<path style="fill:none;stroke:#4F5130;stroke-width:2;stroke-linecap:round;stroke-linejoin:round;stroke-miterlimit:10;" d="
				M428.457,161.543c-3.388,0.74-5.624,3.931-7.198,7.021c-4.702,9.228-6.565,19.879-5.274,30.156"/>
			<path style="fill:none;stroke:#4F5130;stroke-width:2;stroke-linecap:round;stroke-linejoin:round;stroke-miterlimit:10;" d="
				M407.275,200.886c-1.223,6.279,1.479,13.154,6.65,16.92"/>
			<path style="fill:none;stroke:#4F5130;stroke-width:2;stroke-linecap:round;stroke-linejoin:round;stroke-miterlimit:10;" d="
				M445.753,226.783c-2.08-1.072-4.608-0.573-6.824,0.18c-4.527,1.54-8.721,4.053-12.213,7.32"/>
			<path style="fill:none;stroke:#4F5130;stroke-width:2;stroke-linecap:round;stroke-linejoin:round;stroke-miterlimit:10;" d="
				M440.863,236.301c3.386-2.323,7.01-4.354,10.923-5.602c3.912-1.248,8.136-1.689,12.153-0.835c2.705,0.575,5.575,2.05,6.319,4.714
				c0.546,1.956-0.237,4.091-1.535,5.653c-1.299,1.562-3.057,2.66-4.783,3.731"/>
			<path style="fill:none;stroke:#4F5130;stroke-width:2;stroke-linecap:round;stroke-linejoin:round;stroke-miterlimit:10;" d="
				M399.893,240.092c1.566-0.4,3.245,0.505,4.178,1.825s1.256,2.971,1.42,4.578c0.759,7.397-1.342,14.793-4.036,21.724"/>
			<path style="fill:none;stroke:#4F5130;stroke-width:2;stroke-linecap:round;stroke-linejoin:round;stroke-miterlimit:10;" d="
				M375.653,221.104c-0.332-1.994,1.323-4.105,3.337-4.76c2.014-0.655,4.313-0.231,5.835,1.065
				c4.255,3.623,9.678,13.001,11.07,19.553"/>
		</g>
		<g>
			<path style="fill:#9E9C4D;" d="M259.662,285.087c-8.345-3.227-15.442-9.569-19.584-17.5c-0.738-1.413-1.337-3.28-0.285-4.477
				c0.743-0.845,2.071-0.954,3.123-0.553c1.051,0.401,1.888,1.21,2.678,2.012C251.383,270.443,256.412,277.065,259.662,285.087z"/>
			<path style="fill:#9E9C4D;" d="M259.199,285.699c-0.432-9.253,2.296-18.624,7.626-26.2c0.812-1.154,1.718-2.298,2.956-2.975
				c1.238-0.677,2.887-0.78,3.992,0.097c1.729,1.372,1.25,4.083,0.504,6.161C271.159,271.473,266.222,279.507,259.199,285.699z"/>
			<path style="fill:#9E9C4D;" d="M258.812,265.211c-3.592-7.554-4.812-16.215-3.448-24.467c0.555-3.355,1.59-6.76,3.852-9.299
				c0.89-0.999,2.392-1.873,3.485-1.102c0.593,0.419,0.818,1.179,0.981,1.886C266.313,243.652,262.759,255.489,258.812,265.211z"/>
			<path style="fill:#9E9C4D;" d="M265.372,311.922c-0.293-5.408-0.341-10.87,0.646-16.195c0.987-5.325,3.065-10.541,6.622-14.625
				c0.571-0.655,1.202-1.296,2.005-1.627c0.803-0.331,1.82-0.282,2.437,0.329c0.737,0.73,0.665,1.922,0.518,2.949
				C276.075,293.407,272.086,303.701,265.372,311.922z"/>
			<path style="fill:#9E9C4D;" d="M275.451,338.736c-1.081-10.468-0.439-21.263,1.89-31.809c0.98-4.438,2.416-9.103,5.766-12.273
				c0.796-0.753,1.879-1.443,2.841-1.115c1.25,0.426,1.35,2.156,1.223,3.541C285.873,311.243,282.001,325.374,275.451,338.736z"/>
			<path style="fill:#9E9C4D;" d="M291.207,357.914c-1.642-15.262,1.301-31.092,8.936-44.409c0.82-1.43,2.149-3.037,3.752-2.65
				c1.437,0.347,2.001,2.081,2.128,3.553c0.258,2.992-0.255,5.994-0.864,8.934C302.556,335.913,298.152,348.108,291.207,357.914z"/>
			<path style="fill:#9E9C4D;" d="M263.91,311.674c-10.722-0.604-21.108-5.813-28.003-14.046c-0.83-0.991-1.643-2.38-0.977-3.488
				c0.812-1.35,2.861-0.873,4.284-0.196C248.394,298.312,256.909,304.074,263.91,311.674z"/>
			<path style="fill:#9E9C4D;" d="M276.963,337.713c-12.401,3.633-26.656-0.013-35.79-9.154c-0.713-0.714-1.449-1.631-1.242-2.618
				c0.339-1.617,2.608-1.695,4.224-1.347C255.441,327.026,266.374,331.089,276.963,337.713z"/>
			<path style="fill:#9E9C4D;" d="M291.16,358.859c-3.308,3.164-8.202,3.859-12.757,4.312c-5.418,0.539-10.88,0.957-16.302,0.465
				c-5.422-0.492-10.842-1.935-15.425-4.874c-0.991-0.636-1.967-1.368-2.559-2.386c-0.592-1.018-0.717-2.385-0.028-3.339
				c0.914-1.266,2.747-1.322,4.307-1.238C262.655,352.566,276.838,354.688,291.16,358.859z"/>
			<path style="fill:none;stroke:#666537;stroke-width:2;stroke-linecap:round;stroke-linejoin:round;stroke-miterlimit:10;" d="
				M259.856,247.826c-4.103,24.631-1.298,50.375,8.014,73.544c9.312,23.169,25.103,43.694,45.11,58.634"/>
			<path style="fill:none;stroke:#666537;stroke-width:2;stroke-linecap:round;stroke-linejoin:round;stroke-miterlimit:10;" d="
				M283.207,301.183c-3.305,12.492-5.467,25.287-6.188,37.723c-9.555-3.713-19.11-7.425-28.665-11.138"/>
			<path style="fill:none;stroke:#666537;stroke-width:2;stroke-linecap:round;stroke-linejoin:round;stroke-miterlimit:10;" d="
				M301.565,322.51c-4.745,12.136-8.323,24.728-10.447,38.075c-12.713-0.937-25.425-1.874-38.138-2.811"/>
			<path style="fill:none;stroke:#666537;stroke-width:2;stroke-linecap:round;stroke-linejoin:round;stroke-miterlimit:10;" d="
				M258.96,283.521c2.897-6.058,6.42-11.817,10.494-17.156"/>
			<path style="fill:none;stroke:#666537;stroke-width:2;stroke-linecap:round;stroke-linejoin:round;stroke-miterlimit:10;" d="
				M246.246,269.418c3.868,4.713,8.104,9.125,12.655,13.182"/>
			<path style="fill:none;stroke:#666537;stroke-width:2;stroke-linecap:round;stroke-linejoin:round;stroke-miterlimit:10;" d="
				M265.02,313.183c2.216-8.355,5.296-16.481,9.177-24.204"/>
			<path style="fill:none;stroke:#666537;stroke-width:2;stroke-linecap:round;stroke-linejoin:round;stroke-miterlimit:10;" d="
				M241.863,299.01c7.678,5.282,14.494,9.324,22.812,13.528"/>
		</g>
		<g>
			<path style="fill:#666537;" d="M383.812,329.689c-2.628-4.61-2.129-10.354-0.852-15.505c2.642-10.654,8.333-20.533,16.223-28.163
				c7.891-7.63,17.955-12.987,28.691-15.27c-0.668,1.571-1.336,3.143-2.005,4.714c8.423-3.106,17.373-4.78,27.401-4.324
				c-0.588,8.07-3.446,15.963-8.161,22.539c2.217-0.382,4.435-0.765,6.567-0.671c-1.908,14.727-11.122,28.326-24.092,35.557
				C414.614,335.798,398.203,336.487,383.812,329.689z"/>
			<path style="fill:none;stroke:#4F5130;stroke-width:2;stroke-linecap:round;stroke-linejoin:round;stroke-miterlimit:10;" d="
				M406.044,284.951c-1.131,8.127-2.262,16.254-3.393,24.38"/>
			<path style="fill:none;stroke:#4F5130;stroke-width:2;stroke-linecap:round;stroke-linejoin:round;stroke-miterlimit:10;" d="
				M395.431,320.018c8.112-0.275,16.223-0.551,24.335-0.826"/>
			<path style="fill:none;stroke:#4F5130;stroke-width:2;stroke-linecap:round;stroke-linejoin:round;stroke-miterlimit:10;" d="
				M414.285,301.045c7.303-0.211,14.605-0.421,21.908-0.632"/>
			<path style="fill:none;stroke:#4F5130;stroke-width:2;stroke-linecap:round;stroke-linejoin:round;stroke-miterlimit:10;" d="
				M426.22,270.914c-11.083,2.694-21.302,8.834-28.886,17.353c-7.583,8.519-14.001,21.261-15.393,32.582"/>
			<path style="fill:none;stroke:#9E9C4D;stroke-width:2;stroke-linecap:round;stroke-linejoin:round;stroke-miterlimit:10;" d="
				M453.113,271.181c-0.59,8.036-3.682,15.871-8.74,22.144"/>
			<path style="fill:none;stroke:#9E9C4D;stroke-width:2;stroke-linecap:round;stroke-linejoin:round;stroke-miterlimit:10;" d="
				M451.446,293.249c-2.339,10.356-6.043,20.82-13.477,28.4c-6.841,6.975-16.336,10.905-25.978,12.482
				c-9.642,1.577-19.7-0.655-27.216-4.003"/>
			<path style="fill:none;stroke:#4F5130;stroke-width:2;stroke-linecap:round;stroke-linejoin:round;stroke-miterlimit:10;" d="
				M431.152,286.7c-11.914,9.472-23.864,18.976-34.51,29.854c-10.646,10.878-20.013,23.231-25.956,37.243"/>
		</g>
	</g>
	<g>
		<path style="fill:#52322C;" d="M276.031,258.379c10.904-10.523,27.09-24.156,39.189-31.896
			c23.811,0.372,47.593,2.548,70.419,6.076c9.958,13.393,21.256,24.251,30.268,38.714
			C369.84,269.556,317.36,269.057,276.031,258.379z"/>
		<g>
			<path style="fill:#567F6E;" d="M365.295,215.903c-1.06,5.665-4.314,10.897-8.927,14.355c-0.926,0.694-1.953,1.337-3.102,1.458
				s-2.438-0.425-2.839-1.509c-0.344-0.928,0.025-1.96,0.433-2.864c1.122-2.49,2.57-4.833,4.295-6.95
				c-1.986,2.444-5.128,3.903-8.269,3.839c-0.986-0.02-2.112-0.28-2.563-1.157c-0.506-0.984,0.113-2.168,0.802-3.039
				c1.752-2.217,4.092-3.964,6.712-5.014c-2.541,1.348-5.662,1.543-8.342,0.521c-0.787-0.3-1.596-0.763-1.904-1.549
				c-0.582-1.484,0.91-2.935,2.293-3.734c5.94-3.436,13.248-4.406,19.858-2.636L365.295,215.903z"/>
			<path style="fill:none;stroke:#3C6256;stroke-width:2;stroke-linecap:round;stroke-linejoin:round;stroke-miterlimit:10;" d="
				M365.116,216.757c-1.109,4.521-5.997,11.465-9.014,13.463c-0.91,0.602-1.995,1.14-3.05,0.877
				c-1.328-0.331-2.064-1.868-1.94-3.235c0.192-2.115,4.602-7.684,4.746-8.234c-0.392,0.265-5.622,4.904-9.245,4.526
				c-1.546-0.161-2.556-2.157-1.488-4.119"/>
			<path style="fill:#EAA94E;" d="M378.778,210.32c-1.227-3.238-2.734-6.338-4.642-9.23c-1.82-2.759-3.749-5.523-6.168-7.793
				c-0.576-0.54-1.196-1.022-1.835-1.476c-2.448,1.84-4.54,4.134-5.836,6.891c-1.82,3.871-1.819,8.709,0.101,12.837
				c1.061,2.281,2.141,4.592,3.771,6.505c1.63,1.913,3.906,3.413,6.418,3.549c2.691,0.146,5.203-1.246,7.543-2.594
				c0.927-0.534,1.854-1.071,2.782-1.606C380.537,214.971,379.626,212.559,378.778,210.32z"/>
			<path style="fill:none;stroke:#EFC380;stroke-width:2;stroke-linecap:round;stroke-linejoin:round;stroke-miterlimit:10;" d="
				M365.115,218.168c3.33,6.003,11.394,2.608,15.641-0.142"/>
			<path style="fill:none;stroke:#CF673B;stroke-width:2;stroke-linecap:round;stroke-linejoin:round;stroke-miterlimit:10;" d="
				M358.341,205.001c1.197-4.927,3.917-9.448,7.659-12.862"/>
		</g>
		<g>
			<path style="fill:#F6E0C5;" d="M332.8,237.099c-2.792,0.263-5.619-1.773-6.254-4.504c-0.109-0.471-0.192-1.007-0.584-1.29
				c-0.419-0.302-0.991-0.176-1.506-0.145c-1.3,0.077-2.617-0.609-3.299-1.718c-0.682-1.109-0.7-2.594-0.044-3.719
				c0.661-1.135,1.993-2.228,1.513-3.45c-0.327-0.835-1.359-1.135-2.255-1.155c-0.897-0.02-1.843,0.12-2.652-0.266
				c-1.033-0.492-1.519-1.689-1.742-2.811c-0.223-1.122-0.289-2.313-0.862-3.303c-1.011-1.75-3.224-2.319-4.854-3.513
				c-2.245-1.646-3.348-4.706-2.668-7.405c-8.819,6.724-17.043,12.874-25.587,18.544c-0.91,2.978,1.568,6.439,4.709,6.664
				c1.854,0.132,3.927-0.648,5.459,0.403c1.567,1.075,1.554,3.38,2.538,5.006c1.251,2.067,3.882,2.737,6.247,3.227
				c-1.337,1.56-0.583,4.38,1.354,5.064c0.935,0.33,2.091,0.266,2.744,1.012c0.567,0.648,0.485,1.613,0.566,2.47
				c0.164,1.743,1.184,3.386,2.675,4.305c1.49,0.92,3.415,1.096,5.016,0.654C321,249.365,327.998,244.761,332.8,237.099z"/>
			<path style="fill:#666537;" d="M297.41,180.161c-5.639,0.856-10.623,5.116-12.346,10.554c-1.723,5.438-0.102,11.79,4.21,16.022
				C295.983,200.792,299.102,191.077,297.41,180.161z"/>
			<path style="fill:none;stroke:#4F5130;stroke-width:2;stroke-linecap:round;stroke-linejoin:round;stroke-miterlimit:10;" d="
				M278.3,190.291c1.24,6.695,5.397,12.796,11.173,16.4"/>
			<path style="fill:#CF673B;" d="M312.568,203.059c-2.84-4.055-8.25-6.12-13.07-4.99c-4.82,1.13-8.748,5.385-9.091,10.339
				c-5.431,0.142-10.595,3.869-12.44,8.979c-1.845,5.11-0.254,11.276,4.196,14.814c0.323-2.212,1.784-4.228,3.786-5.224
				c2.002-0.996,4.49-0.946,6.45,0.131c-0.996-2.098-0.392-4.836,1.394-6.32c1.786-1.484,4.588-1.577,7.031-0.111
				c-1.017-2.071-0.626-4.751,0.941-6.445c1.567-1.694,4.208-2.292,7.303-1.391c-0.54-1.865-0.334-3.934,0.563-5.655
				C310.528,205.465,312.106,204.11,312.568,203.059z"/>
			<path style="fill:#CF673B;" d="M334.441,231.192c-0.398,1.266-1.468,2.299-2.748,2.652c-1.28,0.353-2.728,0.014-3.718-0.87
				c-0.425,2.733-0.74,5.09-2.219,6.71c-1.479,1.62-4.454,1.977-5.743,0.203c-0.207,1.422-0.454,2.862-1.085,4.152
				c-0.631,1.29-1.704,2.431-3.085,2.827c-1.381,0.395-3.06-0.125-3.731-1.395c0.06,2.617-1.391,5.216-3.651,6.538
				c-2.259,1.322-5.235,1.315-7.471,0.45c2.533,3.899,6.697,6.702,11.263,7.58c1.491,0.287,3.097,0.362,4.466-0.294
				c1.524-0.731,2.527-2.281,2.993-3.906c0.465-1.625,0.464-3.342,0.307-5.45c4.083,1.714,9.229,1.667,12.512-1.305
				c2.285-2.069,3.33-5.233,3.465-8.312C336.129,237.691,335.451,234.641,334.441,231.192z"/>
			<path style="fill:none;stroke:#D78A4B;stroke-width:2;stroke-linecap:round;stroke-linejoin:round;stroke-miterlimit:10;" d="
				M282.053,226.867c-1.211-1.968-1.471-4.492-0.687-6.666"/>
			<path style="fill:none;stroke:#D78A4B;stroke-width:2;stroke-linecap:round;stroke-linejoin:round;stroke-miterlimit:10;" d="
				M283.143,216.925c0.212-1.069,1.027-1.997,2.06-2.346"/>
			<path style="fill:none;stroke:#CA4F23;stroke-width:2;stroke-linecap:round;stroke-linejoin:round;stroke-miterlimit:10;" d="
				M318.086,258.435c2.309-1.121,3.373-4.147,2.515-7.15"/>
			<path style="fill:none;stroke:#CA4F23;stroke-width:2;stroke-linecap:round;stroke-linejoin:round;stroke-miterlimit:10;" d="
				M320.091,240.057c1.787,1.089,4.273,0.448,5.689-1.093c1.416-1.541,1.895-3.756,1.781-5.846c1.205,0.917,2.877,1.184,4.308,0.688
				c1.431-0.496,2.579-1.74,3.274-3.122c1.788,4.276,2.033,9.178,0.68,13.611"/>
			<path style="fill:none;stroke:#D78A4B;stroke-width:2;stroke-linecap:round;stroke-linejoin:round;stroke-miterlimit:10;" d="
				M332.098,238.363c0.994,2.311,0.512,5.183-1.182,7.043"/>
			<path style="fill:none;stroke:#EFC380;stroke-width:2;stroke-linecap:round;stroke-linejoin:round;stroke-miterlimit:10;" d="
				M307.698,221.183c-0.892,1.224-0.523,3.171,0.754,3.984c1.22,0.777,3.086,0.668,3.77,1.942c0.386,0.72,0.204,1.594,0.224,2.41
				c0.061,2.489,2.421,4.684,4.907,4.566"/>
			<path style="fill:none;stroke:#EFC380;stroke-width:2;stroke-linecap:round;stroke-linejoin:round;stroke-miterlimit:10;" d="
				M294.477,224.831c1.099-0.019,2.198-0.038,3.297-0.057c0.036,1.594,0.169,3.397,1.399,4.412c0.869,0.717,2.099,0.857,2.994,1.541
				c0.773,0.59,1.206,1.514,1.569,2.415c0.363,0.902,0.701,1.844,1.356,2.563c0.655,0.718,1.731,1.158,2.62,0.765"/>
			<path style="fill:none;stroke:#9E9C4D;stroke-width:2;stroke-linecap:round;stroke-linejoin:round;stroke-miterlimit:10;" d="
				M291.102,207.098c-1.725-6.815-1.032-13.79,1.926-19.409"/>
			<path style="fill:none;stroke:#CA4F23;stroke-width:2;stroke-linecap:round;stroke-linejoin:round;stroke-miterlimit:10;" d="
				M290.96,208.245c0.221-3.23,1.933-6.439,4.536-8.502c2.603-2.063,6.045-2.94,9.121-2.323c3.076,0.617,5.724,2.715,7.017,5.56"/>
		</g>
		<g>
			<path style="fill:#F6E0C5;" d="M390.854,163.191c-0.857-2.67,0.524-5.869,3.055-7.076c0.437-0.208,0.943-0.404,1.135-0.847
				c0.205-0.474-0.041-1.005-0.182-1.502c-0.354-1.253,0.033-2.686,0.969-3.591c0.937-0.904,2.383-1.24,3.623-0.842
				c1.25,0.402,2.604,1.468,3.695,0.737c0.745-0.499,0.817-1.571,0.644-2.451c-0.173-0.88-0.513-1.774-0.31-2.648
				c0.259-1.115,1.323-1.846,2.371-2.305c1.048-0.459,2.197-0.779,3.041-1.551c1.492-1.363,1.572-3.647,2.389-5.495
				c1.125-2.546,3.877-4.28,6.659-4.196c-8.461-7.169-16.235-13.88-23.607-21.006c-3.104-0.249-5.952,2.914-5.497,6.03
				c0.269,1.839,1.477,3.696,0.779,5.418c-0.714,1.761-2.968,2.244-4.344,3.554c-1.75,1.665-1.84,4.379-1.81,6.795
				c-1.811-0.971-4.403,0.371-4.655,2.41c-0.122,0.984,0.189,2.099-0.399,2.897c-0.511,0.693-1.471,0.82-2.291,1.083
				c-1.667,0.535-3.052,1.884-3.631,3.537c-0.578,1.653-0.336,3.571,0.439,5.04C376.339,154.301,382.339,160.147,390.854,163.191z"
				/>
			<path style="fill:#666537;" d="M438.861,116.396c-2.047-5.324-7.279-9.276-12.959-9.791c-5.681-0.515-11.537,2.433-14.743,7.554
				C418.404,119.435,428.563,120.394,438.861,116.396z"/>
			<path style="fill:none;stroke:#4F5130;stroke-width:2;stroke-linecap:round;stroke-linejoin:round;stroke-miterlimit:10;" d="
				M424.862,99.909c-6.272,2.649-11.338,8.019-13.617,14.435"/>
			<path style="fill:#CF673B;" d="M419.753,136.12c3.35-3.645,4.205-9.372,2.066-13.837c-2.139-4.464-7.138-7.387-12.051-6.658
				c-1.305-5.274-6.054-9.516-11.442-10.221c-5.387-0.704-11.068,2.174-13.567,7.28c2.23-0.159,4.512,0.834,5.915,2.575
				c1.403,1.741,1.888,4.182,1.258,6.328c1.835-1.423,4.639-1.422,6.472,0.004c1.833,1.425,2.526,4.142,1.619,6.843
				c1.805-1.439,4.506-1.632,6.497-0.465c1.991,1.167,3.142,3.618,2.927,6.834c1.705-0.928,3.77-1.171,5.644-0.665
				C416.965,134.644,418.627,135.894,419.753,136.12z"/>
			<path style="fill:#CF673B;" d="M396.975,163.525c-1.322-0.117-2.561-0.94-3.18-2.114c-0.619-1.174-0.6-2.661,0.051-3.818
				c-2.76,0.172-5.13,0.37-7.03-0.726c-1.9-1.096-2.888-3.925-1.432-5.566c-1.433,0.104-2.893,0.171-4.289-0.168
				c-1.396-0.339-2.741-1.142-3.423-2.406c-0.683-1.264-0.536-3.015,0.561-3.943c-2.543,0.62-5.393-0.238-7.169-2.161
				s-2.409-4.831-2.044-7.2c-3.264,3.311-5.107,7.98-4.983,12.628c0.04,1.517,0.312,3.102,1.246,4.298
				c1.041,1.332,2.771,1.979,4.458,2.084c1.687,0.105,3.364-0.264,5.389-0.871c-0.797,4.356,0.354,9.371,3.962,11.939
				c2.511,1.787,5.826,2.129,8.863,1.598C390.99,166.569,393.824,165.253,396.975,163.525z"/>
			<path style="fill:none;stroke:#D78A4B;stroke-width:2;stroke-linecap:round;stroke-linejoin:round;stroke-miterlimit:10;" d="
				M389.946,111.43c1.662-1.605,4.072-2.401,6.363-2.103"/>
			<path style="fill:none;stroke:#D78A4B;stroke-width:2;stroke-linecap:round;stroke-linejoin:round;stroke-miterlimit:10;" d="
				M399.89,110.359c1.09-0.022,2.172,0.574,2.734,1.508"/>
			<path style="fill:none;stroke:#CA4F23;stroke-width:2;stroke-linecap:round;stroke-linejoin:round;stroke-miterlimit:10;" d="
				M366.855,153.403c1.59,2.014,4.775,2.404,7.523,0.921"/>
			<path style="fill:none;stroke:#CA4F23;stroke-width:2;stroke-linecap:round;stroke-linejoin:round;stroke-miterlimit:10;" d="
				M385.235,151.414c-0.68,1.979,0.481,4.27,2.289,5.322c1.809,1.052,4.076,1.044,6.092,0.484c-0.637,1.374-0.538,3.064,0.253,4.355
				c0.792,1.291,2.253,2.145,3.753,2.527c-3.792,2.665-8.527,3.957-13.147,3.588"/>
			<path style="fill:none;stroke:#D78A4B;stroke-width:2;stroke-linecap:round;stroke-linejoin:round;stroke-miterlimit:10;" d="
				M389.468,162.777c-2.044,1.467-4.952,1.613-7.133,0.359"/>
			<path style="fill:none;stroke:#EFC380;stroke-width:2;stroke-linecap:round;stroke-linejoin:round;stroke-miterlimit:10;" d="
				M401.006,135.256c-1.387-0.608-3.209,0.17-3.729,1.592c-0.497,1.358,0.01,3.158-1.087,4.099c-0.62,0.531-1.513,0.542-2.306,0.737
				c-2.417,0.595-4.054,3.37-3.405,5.773"/>
			<path style="fill:none;stroke:#EFC380;stroke-width:2;stroke-linecap:round;stroke-linejoin:round;stroke-miterlimit:10;" d="
				M394.603,123.128c0.255,1.069,0.51,2.139,0.764,3.208c-1.549,0.378-3.282,0.895-4.009,2.314
				c-0.514,1.003-0.386,2.233-0.862,3.255c-0.41,0.881-1.219,1.503-2.022,2.051c-0.803,0.549-1.651,1.081-2.212,1.875
				c-0.561,0.794-0.759,1.939-0.184,2.723"/>
			<path style="fill:none;stroke:#9E9C4D;stroke-width:2;stroke-linecap:round;stroke-linejoin:round;stroke-miterlimit:10;" d="
				M411.197,116.022c6.285-3.148,13.246-3.97,19.369-2.287"/>
			<path style="fill:none;stroke:#CA4F23;stroke-width:2;stroke-linecap:round;stroke-linejoin:round;stroke-miterlimit:10;" d="
				M410.047,116.129c3.202-0.478,6.704,0.505,9.278,2.604c2.574,2.099,4.17,5.272,4.228,8.409s-1.422,6.174-3.922,8.048"/>
		</g>
		<g>
			<g>
				<path style="fill:#88625D;" d="M406.212,290.576c0.572-2.423,1.204-4.963,2.896-6.79c0.779-0.841,1.861-1.452,2.984-1.71
					c0.778-3.623,1.555-7.248,2.339-10.859c-3.033-1.498-135.187-12.609-138.205-12.701c0.445,3.96,0.891,7.921,1.336,11.882
					c1.162,0.974,2.102,2.213,2.769,3.544c1.571,3.138,1.933,6.723,2.278,10.215c3.625,36.62,8.307,73.126,13.069,109.617
					c29.824,2.137,59.718,2.932,89.144,2.551C389.794,360.235,398.006,325.355,406.212,290.576z"/>
			</g>
			<path style="fill:none;stroke:#664945;stroke-width:2;stroke-linecap:round;stroke-linejoin:round;stroke-miterlimit:10;" d="
				M276.817,259.313c0.281,3.755,0.562,7.51,0.842,11.265c18.746,4.772,37.862,8.088,57.12,9.91"/>
			<path style="fill:none;stroke:#664945;stroke-width:2;stroke-linecap:round;stroke-linejoin:round;stroke-miterlimit:10;" d="
				M341.477,395.427c14.13-0.208,28.273,0.51,42.309,2.148c6.664-32.495,13.272-65.111,19.881-97.727
				c1.383-6.823,3.285-14.419,9.328-17.625c0.741-4.173,1.338-8.371,1.789-12.584"/>
			<path style="fill:none;stroke:#BA9487;stroke-width:2;stroke-linecap:round;stroke-linejoin:round;stroke-miterlimit:10;" d="
				M289.332,290.578c1.929,18.546,3.858,37.092,5.787,55.638"/>
			<path style="fill:none;stroke:#BA9487;stroke-width:2;stroke-linecap:round;stroke-linejoin:round;stroke-miterlimit:10;" d="
				M296.289,354.535c0.732,5.014,1.464,10.028,2.196,15.042"/>
			<path style="fill:none;stroke:#664945;stroke-width:2;stroke-linecap:round;stroke-linejoin:round;stroke-miterlimit:10;" d="
				M401.179,282.569c-14.974-0.245-29.949-0.489-44.923-0.734"/>
			<path style="fill:none;stroke:#BA9487;stroke-width:2;stroke-linecap:round;stroke-linejoin:round;stroke-miterlimit:10;" d="
				M394.805,244.021c0.701,0.45,12.258,17.659,19.896,25.92c-38.605-1.871-77.159-5.273-115.53-10.192"/>
		</g>
		<g>
			<path style="fill:#F6E0C5;" d="M347.188,191.848c-4.631-1.895-9.583-3.001-14.58-3.259c-1.974-0.102-4.012-0.06-5.837,0.698
				c-3.392,1.409-5.421,5.169-5.507,8.841c-0.086,3.672,1.49,7.215,3.633,10.199c2.142,2.983,4.843,5.512,8.011,8.521
				c-0.559-3.268-1.118-6.536-1.677-9.804c2.13,0.398,4.309,0.533,6.695,0.496c-1.591-1.82-3.181-3.641-4.668-5.881
				c1.303-0.245,2.607-0.49,4.13-1.236c-0.746-1.374-1.347-2.827-1.625-4.657c2.547,0.976,5.094,1.951,8.222,2.581
				c-0.802-1.478-1.604-2.955-1.839-4.582C343.801,193.255,345.486,192.847,347.188,191.848z"/>
			<path style="fill:none;stroke:#EFC380;stroke-width:2;stroke-linecap:round;stroke-linejoin:round;stroke-miterlimit:10;" d="
				M321.907,194.951c-0.84,3.91,0.13,8.061,2.073,11.557c1.943,3.496,4.798,6.404,8.26,9.547c-0.4-2.956-0.8-5.913-1.2-8.869
				c2.047,0.008,4.093,0.015,6.013-0.274c-1.083-1.539-2.253-3.016-3.502-4.424c1.462-0.275,2.924-0.549,4.697-0.877
				c-0.746-1.81-1.492-3.62-2.239-5.429c2.505,0.689,5.009,1.377,7.87,2.28c-0.593-1.458-1.186-2.916-1.665-4.278
				c1.329-0.575,2.659-1.15,3.988-1.725"/>
			<path style="fill:none;stroke:#F1F1F4;stroke-width:2;stroke-linecap:round;stroke-linejoin:round;stroke-miterlimit:10;" d="
				M326.394,193.961c0.775-1.039,1.903-1.81,3.152-2.154c1.25-0.344,2.613-0.259,3.81,0.237"/>
		</g>
		<g>
			<path style="fill:#F6E0C5;" d="M336.257,159.406c2.23-1.771,4.577-3.437,7.194-4.558c2.618-1.121,5.541-1.673,8.34-1.152
				c3.007,0.56,5.713,2.343,7.683,4.683c3.384,4.019,4.616,9.749,3.182,14.803c-1.433,5.054-5.49,9.285-10.974,10.952
				c0.478-1.622,0.957-3.245,1.435-4.867c-1.7,0.974-3.63,1.544-5.787,1.793c0.805-2.307,1.611-4.614,2.416-6.921
				c-1.968,0.235-3.936,0.47-6.581,0.535c0.681-1.626,1.362-3.253,2.043-4.879c-2.051,0.796-4.19,1.363-6.366,1.688
				c1.473-1.928,2.743-4.011,3.469-6.368c-1.711-0.012-3.422-0.023-5.133-0.034c-0.142-0.001-0.303-0.011-0.392-0.12
				c-0.085-0.104-0.069-0.256-0.048-0.389C337.001,162.9,337.261,161.229,336.257,159.406z"/>
			<path style="fill:none;stroke:#F1F1F4;stroke-width:2;stroke-linecap:round;stroke-linejoin:round;stroke-miterlimit:10;" d="
				M342.398,158.891c1.485-1.267,3.437-1.974,5.389-1.952c1.952,0.022,3.887,0.773,5.344,2.073"/>
			<path style="fill:none;stroke:#F1F1F4;stroke-width:2;stroke-linecap:round;stroke-linejoin:round;stroke-miterlimit:10;" d="
				M355.189,161.434c0.613,0.536,1.155,1.153,1.609,1.829"/>
			<path style="fill:none;stroke:#EFC380;stroke-width:2;stroke-linecap:round;stroke-linejoin:round;stroke-miterlimit:10;" d="
				M361.95,162.545c1.794,4.068,1.458,8.915-0.482,12.916c-1.94,4.001-5.37,7.175-9.312,9.233c0.222-1.43,0.444-2.86,0.666-4.29"/>
			<path style="fill:none;stroke:#EFC380;stroke-width:2;stroke-linecap:round;stroke-linejoin:round;stroke-miterlimit:10;" d="
				M351.919,179.663c-1.517,0.462-3.035,0.925-4.552,1.387c0.592-2.538,1.356-4.75,2.235-7.026c-1.874,0.209-3.74,0.487-5.593,0.834
				"/>
		</g>
		<g style="opacity:0.9216;">
			<path style="fill:#EFC380;" d="M377.928,189.125c0.053,4.172,1.202,8.751,4.656,11.092c2.543,1.724,5.818,1.886,8.644,3.091
				c5.605,2.391,8.646,8.423,13.362,12.283c5.839,4.78,14.466,5.855,21.67,2.025c-4.827,0.113-9.652-2.168-12.628-5.97
				c-2.239-2.86-3.422-6.424-5.601-9.33c-1.98-2.641-4.774-4.671-7.914-5.689c-3.367-1.092-6.994-1.019-10.462-1.727
				C385.668,194.086,381.901,192.215,377.928,189.125z"/>
			<path style="fill:#EFC380;" d="M378.115,188.191c-1.873,5.927,0.471,12.934,5.533,16.541c2.548,1.816,5.747,2.899,7.556,5.451
				c1.583,2.233,1.765,5.126,2.079,7.844c0.425,3.679,1.229,7.412,3.233,10.526c2.005,3.114,5.408,5.523,9.665,5.564
				c-1.865-1.407-2.812-3.759-3.095-6.078c-0.283-2.319,0.011-4.664,0.163-6.996c0.212-3.251,0.143-6.551-0.635-9.716
				c-0.778-3.164-2.303-6.2-4.685-8.424c-3.07-2.867-7.24-4.152-11.049-5.925C383.072,195.206,379.233,192.486,378.115,188.191z"/>
			<path style="fill:#EFC380;" d="M378.225,187.833c2.307,1.844,5.553,1.89,8.482,1.513c2.929-0.377,5.912-1.087,8.796-0.449
				c4.358,0.964,7.486,4.752,11.505,6.692c3.458,1.669,7.406,1.896,11.164,2.683c3.759,0.786,7.697,2.409,9.534,6.284
				c-2.385-1.809-5.795-1.22-8.579-0.119c-2.784,1.101-5.543,2.655-8.534,2.535c-2.625-0.106-5.022-1.505-7.11-3.1
				c-2.088-1.595-4.014-3.437-6.331-4.675c-2.273-1.214-4.82-1.794-7.326-2.397c-2.505-0.603-5.044-1.261-7.243-2.605
				C380.386,192.85,378.542,190.699,378.225,187.833z"/>
			<path style="fill:none;stroke:#EAA94E;stroke-width:2;stroke-linecap:round;stroke-linejoin:round;stroke-miterlimit:10;" d="
				M378.523,187.648c0.538,3.762,3.322,7.113,6.922,8.332c2.793,0.946,5.889,0.67,8.672,1.643c5.518,1.928,8.834,8.367,14.593,9.366
				c3.241,0.562,6.464-0.77,9.613-1.721c3.149-0.951,6.841-1.45,9.494,0.495"/>
			<path style="fill:none;stroke:#F6E0C5;stroke-width:2;stroke-linecap:round;stroke-linejoin:round;stroke-miterlimit:10;" d="
				M391.759,191.602c2.739,0.147,5.283,1.457,7.556,2.992c2.273,1.535,4.382,3.326,6.792,4.636c2.41,1.31,5.238,2.12,7.906,1.484"/>
			<path style="fill:none;stroke:#F6E0C5;stroke-width:2;stroke-linecap:round;stroke-linejoin:round;stroke-miterlimit:10;" d="
				M386.289,201.635c2.139,1.269,4.29,2.546,6.168,4.177c1.877,1.63,3.484,3.651,4.258,6.014c1.259,3.848,0.188,8.087,0.937,12.066
				c0.854,4.54,4.242,8.517,8.589,10.083"/>
			<path style="fill:none;stroke:#EAA94E;stroke-width:2;stroke-linecap:round;stroke-linejoin:round;stroke-miterlimit:10;" d="
				M407.142,233.807c-2.59-1.507-3.763-4.712-3.929-7.741c-0.167-3.028,0.471-6.049,0.564-9.083
				c0.2-6.518-2.235-13.055-6.625-17.786"/>
			<path style="fill:#37304F;" d="M378.211,191.512c-1.548-0.876-3.049-1.837-4.493-2.877c-0.496-0.357-1.021-0.778-1.138-1.378
				c-0.162-0.827,0.505-1.554,1.024-2.218c0.522-0.669,0.945-1.427,1.585-1.984c0.64-0.557,1.595-0.876,2.344-0.478
				c0.545,0.289,0.852,0.877,1.115,1.436C379.65,186.14,380.489,188.344,378.211,191.512z"/>
			<path style="fill:#EAA94E;" d="M380.582,199.363c-0.558,1.704,1.964,2.57,2.58,0.891
				C383.72,198.549,381.198,197.683,380.582,199.363z"/>
			<path style="fill:#EAA94E;" d="M386.122,201.401c-0.558,1.704,1.964,2.57,2.58,0.891
				C389.26,200.588,386.739,199.722,386.122,201.401z"/>
			<path style="fill:#EAA94E;" d="M388.502,198.851c-0.558,1.704,1.964,2.57,2.58,0.891
				C391.64,198.038,389.118,197.172,388.502,198.851z"/>
			<path style="fill:#EAA94E;" d="M393.765,202.417c-0.558,1.704,1.964,2.57,2.58,0.891
				C396.903,201.604,394.381,200.738,393.765,202.417z"/>
			<path style="fill:#EAA94E;" d="M390.188,205.179c-0.558,1.704,1.964,2.57,2.58,0.891
				C393.326,204.365,390.804,203.499,390.188,205.179z"/>
			<path style="fill:#EAA94E;" d="M395.463,207.625c-0.558,1.704,1.964,2.57,2.58,0.891
				C398.601,206.812,396.079,205.946,395.463,207.625z"/>
			<path style="fill:#EAA94E;" d="M383.88,191.259c-0.558,1.704,1.964,2.57,2.58,0.891
				C387.018,190.446,384.496,189.58,383.88,191.259z"/>
			<path style="fill:#EAA94E;" d="M389.486,194.195c-0.558,1.704,1.964,2.57,2.58,0.891
				C392.624,193.382,390.102,192.516,389.486,194.195z"/>
			<path style="fill:#EAA94E;" d="M389.719,189.904c-0.558,1.704,1.964,2.57,2.58,0.891
				C392.857,189.091,390.335,188.225,389.719,189.904z"/>
			<path style="fill:#EAA94E;" d="M396.106,193.109c-0.558,1.704,1.964,2.57,2.58,0.891
				C399.244,192.296,396.722,191.43,396.106,193.109z"/>
			<path style="fill:#EAA94E;" d="M399.379,197.737c-0.558,1.704,1.964,2.57,2.58,0.891
				C402.516,196.923,399.995,196.057,399.379,197.737z"/>
			<path style="fill:#EAA94E;" d="M401.32,194.286c-0.558,1.704,1.964,2.57,2.58,0.891
				C404.458,193.472,401.936,192.606,401.32,194.286z"/>
		</g>
		<g style="opacity:0.9216;">
			<path style="fill:#EFC380;" d="M345.89,113.245c-5.168-0.972-11.109-0.689-14.86,2.996c-2.762,2.713-3.776,6.719-5.967,9.91
				c-4.347,6.331-12.554,8.589-18.495,13.455c-7.356,6.025-10.828,16.416-7.887,26.268c1.06-5.991,5.077-11.385,10.513-14.117
				c4.09-2.055,8.787-2.631,12.918-4.6c3.754-1.79,6.956-4.738,8.994-8.363c2.186-3.888,2.997-8.387,4.733-12.496
				C337.837,121.574,341.085,117.385,345.89,113.245z"/>
			<path style="fill:#EFC380;" d="M346.998,113.708c-6.857-3.787-16.096-2.632-21.81,2.725c-2.876,2.696-5.01,6.379-8.612,7.98
				c-3.151,1.4-6.771,0.906-10.208,0.619c-4.65-0.389-9.462-0.324-13.807,1.379c-4.345,1.703-8.167,5.309-9.275,10.558
				c2.202-1.955,5.343-2.54,8.278-2.313c2.936,0.227,5.76,1.172,8.602,1.94c3.964,1.07,8.058,1.805,12.16,1.63
				c4.102-0.175,8.232-1.305,11.571-3.694c4.305-3.081,6.928-7.913,10.065-12.177C337.099,118.089,341.413,114.022,346.998,113.708z
				"/>
			<path style="fill:#EFC380;" d="M347.412,113.932c-2.851,2.391-3.715,6.391-3.977,10.103c-0.262,3.712-0.126,7.574-1.631,10.978
				c-2.273,5.144-7.731,8.067-11.127,12.55c-2.922,3.857-4.183,8.678-6.089,13.126c-1.906,4.448-4.888,8.911-10.132,10.217
				c2.828-2.496,2.947-6.856,2.279-10.568c-0.668-3.712-1.903-7.507-1.011-11.172c0.783-3.217,3.108-5.83,5.597-8.014
				c2.489-2.183,5.243-4.105,7.349-6.66c2.065-2.506,3.414-5.509,4.781-8.454c1.368-2.945,2.811-5.919,5.018-8.3
				C340.678,115.355,343.793,113.612,347.412,113.932z"/>
			<path style="fill:none;stroke:#EAA94E;stroke-width:2;stroke-linecap:round;stroke-linejoin:round;stroke-miterlimit:10;" d="
				M347.567,114.347c-4.781-0.27-9.613,2.337-12.013,6.48c-1.862,3.215-2.292,7.109-4.185,10.306
				c-3.753,6.338-12.532,8.835-15.197,15.701c-1.5,3.864-0.655,8.178-0.263,12.304s0.091,8.812-2.971,11.605"/>
			<path style="fill:none;stroke:#F6E0C5;stroke-width:2;stroke-linecap:round;stroke-linejoin:round;stroke-miterlimit:10;" d="
				M339.393,129.716c-0.862,3.347-3.113,6.164-5.574,8.591c-2.461,2.427-5.198,4.587-7.415,7.239
				c-2.217,2.652-3.92,5.944-3.798,9.398"/>
			<path style="fill:none;stroke:#F6E0C5;stroke-width:2;stroke-linecap:round;stroke-linejoin:round;stroke-miterlimit:10;" d="
				M328.357,120.466c-2.099,2.327-4.212,4.668-6.693,6.582s-5.376,3.398-8.488,3.766c-5.067,0.599-10.037-1.777-15.139-1.841
				c-5.821-0.073-11.576,3.124-14.591,8.105"/>
			<path style="fill:none;stroke:#EAA94E;stroke-width:2;stroke-linecap:round;stroke-linejoin:round;stroke-miterlimit:10;" d="
				M283.43,138.232c2.505-2.825,6.757-3.478,10.539-2.931c3.783,0.547,7.356,2.085,11.081,2.954
				c8.003,1.867,16.684,0.484,23.62-3.764"/>
			<path style="fill:#37304F;" d="M342.871,113.001c1.467-1.695,3.027-3.31,4.67-4.835c0.564-0.524,1.215-1.068,1.985-1.064
				c1.062,0.005,1.794,1.01,2.486,1.816c0.696,0.811,1.528,1.522,2.058,2.451c0.53,0.929,0.685,2.188,0.008,3.015
				c-0.493,0.602-1.296,0.835-2.051,1.021C349.15,116.115,346.219,116.603,342.871,113.001z"/>
			<path style="fill:#EAA94E;" d="M332.583,113.979c-1.967-1.113-3.664,1.788-1.742,2.966
				C332.808,118.058,334.505,115.158,332.583,113.979z"/>
			<path style="fill:#EAA94E;" d="M328.688,120.318c-1.967-1.112-3.664,1.788-1.742,2.966
				C328.912,124.396,330.609,121.496,328.688,120.318z"/>
			<path style="fill:#EAA94E;" d="M331.247,123.891c-1.967-1.112-3.664,1.788-1.742,2.966
				C331.472,127.97,333.168,125.07,331.247,123.891z"/>
			<path style="fill:#EAA94E;" d="M325.533,129.507c-1.967-1.113-3.663,1.788-1.742,2.966
				C325.758,133.585,327.455,130.685,325.533,129.507z"/>
			<path style="fill:#EAA94E;" d="M323.011,124.402c-1.967-1.113-3.663,1.788-1.742,2.966
				C323.235,128.481,324.932,125.58,323.011,124.402z"/>
			<path style="fill:#EAA94E;" d="M318.677,130.311c-1.967-1.113-3.663,1.788-1.742,2.966
				C318.902,134.389,320.599,131.489,318.677,130.311z"/>
			<path style="fill:#EAA94E;" d="M341.774,120.068c-1.967-1.113-3.664,1.788-1.742,2.966
				C341.999,124.146,343.696,121.246,341.774,120.068z"/>
			<path style="fill:#EAA94E;" d="M336.755,126.264c-1.967-1.113-3.664,1.788-1.742,2.966
				C336.979,130.342,338.676,127.442,336.755,126.264z"/>
			<path style="fill:#EAA94E;" d="M341.998,127.618c-1.967-1.112-3.663,1.788-1.742,2.966
				C342.223,131.697,343.919,128.796,341.998,127.618z"/>
			<path style="fill:#EAA94E;" d="M336.451,134.712c-1.967-1.112-3.664,1.788-1.742,2.966
				C336.676,138.79,338.372,135.89,336.451,134.712z"/>
			<path style="fill:#EAA94E;" d="M329.921,137.605c-1.967-1.112-3.664,1.788-1.742,2.966
				C330.145,141.684,331.842,138.783,329.921,137.605z"/>
			<path style="fill:#EAA94E;" d="M333.702,140.861c-1.967-1.112-3.664,1.788-1.742,2.966
				C333.926,144.94,335.623,142.04,333.702,140.861z"/>
		</g>
		<g>
			<path style="fill:#CF673B;" d="M367.667,254.448c-4.018-0.795-8.219-5.146-9.036-9.435c2.183-0.021,4.928,1.06,6.488,2.586
				C366.68,249.125,367.891,251.959,367.667,254.448z"/>
			<path style="fill:#EAA94E;" d="M367.667,254.448c3.604-3.9,7.209-7.8,10.813-11.7c0.493-0.534,1.014-1.086,1.698-1.333
				c0.49-0.176,1.022-0.18,1.542-0.182c3.32-0.011,6.639-0.021,9.596-0.042c0.805-0.021,1.559-0.473,2.072-1.094
				c0.512-0.622,0.804-1.398,0.975-2.185c0.434-1.994,0.102-4.177-1.053-5.859c-1.155-1.682-3.159-2.795-5.006-2.613
				c-4.254-0.267-8.537-0.081-13.074,0.56c-2.364,1.557-4.645,3.239-6.831,5.038c-0.086,0.071-0.178,0.151-0.2,0.26
				c-0.026,0.126,0.047,0.249,0.117,0.357c0.598,0.919,1.195,1.838,1.793,2.757c-1.602,0.652-3.548,0.028-5.084,0.824
				c-0.58,0.301-1.044,0.779-1.497,1.249c-1.497,1.552-2.995,3.103-4.863,4.687c0.423,0.089,4.442,0.287,6.696,2.674
				C367.835,250.468,367.453,254.049,367.667,254.448z"/>
			<path style="fill:#F6E0C5;" d="M388.305,229.44c-4.254-0.267-8.537-0.081-13.074,0.56c-1.911,1.258-3.765,2.603-5.561,4.021
				c1.72,0.718,3.316,1.733,4.674,3.01c1.746,1.642,3.086,3.701,3.923,5.947c0.071-0.077,0.142-0.154,0.213-0.231
				c0.493-0.534,1.014-1.086,1.698-1.333c0.49-0.176,1.022-0.18,1.542-0.182c3.32-0.011,6.639-0.021,9.596-0.042
				c0.805-0.021,1.559-0.473,2.071-1.094c0.512-0.622,0.804-1.398,0.976-2.185c0.434-1.994,0.102-4.177-1.053-5.859
				C392.155,230.371,390.152,229.258,388.305,229.44z"/>
			<path style="fill:none;stroke:#CF673B;stroke-width:2;stroke-linecap:round;stroke-linejoin:round;stroke-miterlimit:10;" d="
				M377.438,243.339c-3.311,3.109-6.128,6.851-9.294,10.121"/>
			<path style="fill:none;stroke:#F1F1F4;stroke-width:2;stroke-linecap:round;stroke-linejoin:round;stroke-miterlimit:10;" d="
				M389.095,232.019c-3.883,0.023-7.765,0.3-11.612,0.829"/>
			<g>
				<path style="fill:#CF673B;" d="M370.239,242.371c-1.306,0.307-0.879,2.255,0.434,1.996
					C371.979,244.06,371.552,242.112,370.239,242.371z"/>
				<path style="fill:#CF673B;" d="M372.833,242.464c-1.306,0.307-0.879,2.255,0.434,1.996
					C374.573,244.153,374.146,242.205,372.833,242.464z"/>
				<path style="fill:#CF673B;" d="M370.992,245.329c-1.306,0.306-0.879,2.255,0.434,1.996
					C372.732,247.018,372.305,245.069,370.992,245.329z"/>
				<path style="fill:#CF673B;" d="M367.114,245.625c-1.306,0.306-0.879,2.255,0.434,1.996
					C368.854,247.314,368.426,245.365,367.114,245.625z"/>
				<path style="fill:#CF673B;" d="M366.504,241.815c-1.306,0.307-0.879,2.255,0.434,1.996
					C368.244,243.504,367.817,241.555,366.504,241.815z"/>
				<path style="fill:#CF673B;" d="M369.151,248.193c-1.306,0.306-0.879,2.255,0.434,1.996
					C370.891,249.882,370.464,247.934,369.151,248.193z"/>
			</g>
		</g>
		<g>
			<path style="fill:#CF673B;" d="M348.258,78.302c0.828-4.185,5.359-8.56,9.827-9.411c0.021,2.273-1.104,5.132-2.694,6.758
				C353.801,77.273,350.85,78.535,348.258,78.302z"/>
			<path style="fill:#EAA94E;" d="M348.258,78.302c4.062,3.754,8.124,7.508,12.186,11.262c0.556,0.514,1.131,1.056,1.388,1.768
				c0.184,0.51,0.188,1.064,0.189,1.606c0.011,3.457,0.022,6.915,0.044,9.994c0.022,0.838,0.492,1.624,1.139,2.157
				c0.647,0.533,1.456,0.838,2.276,1.016c2.077,0.452,4.35,0.107,6.102-1.097c1.752-1.203,2.911-3.29,2.721-5.213
				c0.278-4.431,0.085-8.891-0.584-13.617c-1.621-2.462-3.374-4.838-5.247-7.114c-0.074-0.09-0.157-0.185-0.271-0.208
				c-0.131-0.027-0.259,0.049-0.372,0.122c-0.957,0.622-1.915,1.245-2.872,1.867c-0.68-1.669-0.029-3.695-0.859-5.295
				c-0.313-0.604-0.811-1.087-1.3-1.559c-1.616-1.56-3.232-3.119-4.882-5.065c-0.092,0.441-0.299,4.627-2.785,6.974
				C352.402,78.477,348.673,78.079,348.258,78.302z"/>
			<path style="fill:#F6E0C5;" d="M374.302,99.796c0.278-4.431,0.085-8.891-0.583-13.617c-1.311-1.99-2.711-3.921-4.188-5.791
				c-0.748,1.791-1.805,3.454-3.135,4.868c-1.71,1.819-3.855,3.214-6.193,4.086c0.08,0.074,0.16,0.148,0.24,0.222
				c0.556,0.514,1.131,1.056,1.388,1.768c0.184,0.51,0.188,1.064,0.189,1.606c0.011,3.457,0.022,6.915,0.044,9.994
				c0.022,0.838,0.492,1.624,1.139,2.157c0.647,0.533,1.456,0.838,2.276,1.016c2.077,0.452,4.35,0.107,6.102-1.096
				C373.333,103.806,374.492,101.719,374.302,99.796z"/>
			<path style="fill:none;stroke:#CF673B;stroke-width:2;stroke-linecap:round;stroke-linejoin:round;stroke-miterlimit:10;" d="
				M359.827,88.478c-3.238-3.448-7.135-6.382-10.541-9.68"/>
			<path style="fill:none;stroke:#F1F1F4;stroke-width:2;stroke-linecap:round;stroke-linejoin:round;stroke-miterlimit:10;" d="
				M371.617,100.618c-0.024-4.044-0.313-8.087-0.863-12.094"/>
			<g>
				<path style="fill:#CF673B;" d="M360.835,80.98c-0.319-1.36-2.349-0.915-2.078,0.452
					C359.076,82.793,361.105,82.348,360.835,80.98z"/>
				<path style="fill:#CF673B;" d="M360.738,83.682c-0.319-1.36-2.349-0.915-2.078,0.452
					C358.979,85.494,361.009,85.049,360.738,83.682z"/>
				<path style="fill:#CF673B;" d="M357.755,81.764c-0.319-1.36-2.349-0.915-2.078,0.452
					C355.996,83.577,358.025,83.132,357.755,81.764z"/>
				<path style="fill:#CF673B;" d="M357.447,77.725c-0.319-1.36-2.349-0.915-2.078,0.452
					C355.687,79.538,357.717,79.092,357.447,77.725z"/>
				<path style="fill:#CF673B;" d="M361.415,77.09c-0.319-1.36-2.349-0.915-2.078,0.452
					C359.655,78.903,361.685,78.457,361.415,77.09z"/>
				<path style="fill:#CF673B;" d="M354.772,79.847c-0.319-1.36-2.349-0.915-2.078,0.452
					C353.012,81.659,355.042,81.214,354.772,79.847z"/>
			</g>
		</g>
		<g>
			<path style="fill:none;stroke:#F6E0C5;stroke-width:4;stroke-linecap:round;stroke-linejoin:round;stroke-miterlimit:10;" d="
				M314.781,341.739c-1.368-8.254-2.735-16.508-2.439-24.987c5.276-2.846,11.868-3.111,17.355-0.699
				c1.24,0.545,2.53,1.346,2.903,2.648c0.28,0.976-0.037,2.05-0.627,2.876c-0.589,0.827-1.423,1.444-2.272,2.001
				c-4.203,2.756-9.049,4.337-14.421,6.823c4.789-1.152,9.916-2.289,14.538-0.586c1.825,0.672,3.638,1.994,3.953,3.913
				c0.322,1.955-1.028,3.814-2.595,5.026C326.963,342.012,321.227,342.246,314.781,341.739z"/>
			<path style="fill:none;stroke:#F6E0C5;stroke-width:4;stroke-linecap:round;stroke-linejoin:round;stroke-miterlimit:10;" d="
				M342.524,318.131c-0.63,8.406-0.713,16.825-0.249,25.196c0.001-0.221,0.002-0.442,0.003-0.664"/>
			<path style="fill:none;stroke:#F6E0C5;stroke-width:4;stroke-linecap:round;stroke-linejoin:round;stroke-miterlimit:10;" d="
				M360.69,321.23c-3.602,1.446-6.624,4.287-8.291,7.793c-1.666,3.506-1.961,7.643-0.808,11.349c0.77,2.475,2.262,4.842,4.548,6.065
				c2.376,1.271,5.29,1.138,7.867,0.35c4.207-1.287,7.914-4.34,9.668-8.375c1.753-4.035,1.393-9-1.204-12.552
				C369.874,322.307,365.036,320.449,360.69,321.23z"/>
		</g>
	</g>
</g>
</svg>
